<svg width="267" height="252" viewBox="0 0 267 252" fill="none" xmlns="http://www.w3.org/2000/svg">
<path d="M210.542 47.7183C207.538 48.1722 203.966 50.3057 201.345 53.1609C199.598 55.0996 199.286 56.3689 200.699 55.6578C201.17 55.4208 202.309 54.6231 203.246 53.8317C205.209 52.1719 208.605 50.4038 210.189 50.2378C212.952 49.9183 214.096 51.2267 214.246 54.8524C214.284 55.9519 214.371 57.558 214.406 58.446C214.441 59.3339 214.776 60.6676 215.173 61.4596C215.821 62.7517 215.984 62.8736 217.394 63.1787C219.594 63.6284 221.496 63.1772 226.341 61.025C231.066 58.9401 232.515 58.556 233.034 59.3865C233.481 60.1239 233.269 62.6179 232.55 65.0218C231.123 69.7976 231.683 72.5002 234.182 73.2898C235.928 73.8066 237.771 73.442 240.607 71.9878C244.034 70.2293 246.175 69.5377 247.15 69.8459C248.734 70.3466 249.147 73.3184 248.252 77.8765C247.969 79.1554 247.861 80.5242 248.018 80.8897C248.2 81.5085 248.292 81.5373 248.843 81.2555C249.844 80.6949 251.611 75.6756 251.574 73.454C251.517 69.9631 249.631 67.1221 247.233 66.8903C245.604 66.7614 244.477 67.0719 241.621 68.4844C237.24 70.6432 234.814 71.1744 234.522 70.0298C234.458 69.799 234.831 67.8822 235.301 65.7506C236.64 59.9297 236.111 57.2367 233.429 56.3893C231.753 55.8597 230.234 56.2566 225.349 58.4312C221.076 60.3432 219.516 60.7625 218.145 60.3292C217.262 60.05 217.067 59.2517 217.008 55.6549C216.948 50.1636 214.483 47.1397 210.542 47.7183Z" fill="#EBA900"/>
<path d="M132.066 23.1387C131.769 23.1144 131.374 23.3029 131.196 23.5598C130.987 23.8069 129.596 26.9872 128.063 30.6445C126.53 34.3018 125 37.6118 124.672 38.0302C124.165 38.7055 124.054 38.7397 123.026 38.1017C119.001 35.7159 113.228 35.6667 109.29 37.9723C98.0727 44.5904 101.513 62.9756 114.739 67.19C118.759 68.4604 122.75 68.0161 126.294 65.8991C134.117 61.2365 135.003 49.4393 128.124 41.7663C127.137 40.6538 126.306 39.6953 126.244 39.6757C126.223 39.6342 126.81 38.4623 127.547 37.129L128.902 34.6336L130.584 34.7822C132.47 34.9258 135.835 34.4231 137.069 33.8038C138.304 33.1845 138.46 31.981 137.542 30.2985C134.288 24.537 133.317 23.2557 132.066 23.1387ZM134.516 29.0987C135.375 30.4143 136.027 31.6297 135.979 31.7887C135.941 31.9159 135.67 32.1435 135.366 32.2561C134.626 32.5793 130.084 33.0579 129.915 32.8305C129.767 32.6447 131.747 27.4927 132.213 26.8394C132.619 26.2718 132.881 26.5286 134.516 29.0987ZM123.138 39.8775C123.224 40.0438 123.003 40.67 122.618 41.2792C122.164 42.0058 122.002 42.5464 122.131 42.7959C122.345 43.2116 122.811 43.0109 124.269 41.8705C124.882 41.4031 124.913 41.4129 126.179 42.6134C127.894 44.2344 130.189 48.788 130.553 51.3048C131.829 60.0609 125.659 66.7774 117.303 65.6334C114.829 65.3041 111.463 63.5442 109.233 61.3779C106.105 58.3705 104.081 52.2319 104.781 47.9634C105.664 42.7433 109.675 38.7206 114.684 38.0412C117.286 37.715 122.572 38.8283 123.138 39.8775Z" fill="#EBA900"/>
<path d="M116.344 41.5187C115.874 41.7919 115.676 42.9952 115.929 43.8838C116.253 45.0761 117.272 45.8907 118.137 45.7069C118.835 45.5405 119.32 44.6743 118.788 44.506C118.64 44.4592 118.142 43.7394 117.673 42.9233C116.815 41.3511 116.745 41.2588 116.344 41.5187Z" fill="#EBA900"/>
<path d="M125.455 51.1942C124.496 51.8451 124.314 52.5769 124.689 53.8795C125.058 55.0815 125.948 55.7575 127.301 55.8563C128.479 55.9326 128.644 55.2609 127.572 54.4618C126.634 53.7047 126.208 52.4517 126.625 51.6627C127.034 50.9037 126.287 50.6019 125.455 51.1942Z" fill="#EBA900"/>
<path d="M108.602 48.9628C107.63 50.1598 108.491 52.1152 110.634 53.6519C112.466 55.0188 113.096 54.0001 111.539 52.0755C110.992 51.3655 110.292 50.3206 110.023 49.77C109.415 48.5393 109.072 48.359 108.602 48.9628Z" fill="#EBA900"/>
<path d="M116.679 51.3978C115.908 51.7913 115.717 53.0053 116.327 54.0702C116.919 55.1963 118.099 55.7368 118.866 55.2414C119.25 54.9937 119.219 54.7494 118.599 53.9496C118.206 53.423 117.855 52.6413 117.889 52.1825C117.907 51.3163 117.45 51.0042 116.679 51.3978Z" fill="#EBA900"/>
<path d="M150.947 35.0934C149.523 35.2587 147.427 36.6824 146.835 37.8971C145.284 40.8948 147.466 45.2087 151.602 47.4732C153.605 48.5506 155.104 48.6825 156.656 47.8735C157.785 47.2729 158.037 46.9765 158.411 45.7268C159.232 42.9774 158.033 40.3075 155.484 39.1943C152.577 37.9677 150.816 39.2577 151.27 42.3417C151.667 45.0659 152.972 45.41 153.053 42.837C153.089 42.0617 153.243 41.3242 153.38 41.1963C154.189 40.4605 156.508 42.5611 156.597 44.1277C156.689 45.3535 156.603 45.5315 155.7 46.0327C153.384 47.3182 148.151 43.1343 148.203 40.0047C148.202 38.9104 149.581 37.3631 150.933 37.0038C151.899 36.7279 152.556 36.8327 154.73 37.5541C156.157 38.0391 157.432 38.3737 157.55 38.3084C158.924 37.5458 153.262 34.7991 150.947 35.0934Z" fill="#EBA900"/>
<path d="M94.9037 21.3618C93.269 22.3905 92.6393 23.054 91.9141 24.3702C90.3354 27.3213 90.4046 30.8651 92.1105 32.3745C93.2073 33.368 93.9653 33.6075 96.0922 33.5969C98.0881 33.5807 100.147 32.6861 101.978 31.0007C105.78 27.4943 103.616 22.8571 98.6847 23.9223C94.6698 24.8098 93.222 28.9882 96.7044 29.5497C99.0766 29.9399 100.296 28.6361 98.1733 27.9654C97.5063 27.7546 96.9998 27.4508 97.039 27.3194C97.196 26.7941 98.9842 26.0294 100.073 26.0501C103.722 26.0533 101.371 30.701 97.3249 31.4708C93.7318 32.1681 92.1062 30.6122 92.8244 27.2094C93.3303 24.9615 94.1963 23.618 96.0799 22.2007C98.9357 20.0844 97.9824 19.3878 94.9037 21.3618Z" fill="#EBA900"/>
<path d="M183.976 49.4216C183.338 49.8379 181.16 51.6219 179.077 53.4355C176.971 55.2078 175.097 56.7786 174.875 56.9487C174.571 57.1618 174.08 56.6288 173.006 54.9503C169.479 49.441 166.122 46.1141 165.046 47.0787C164.401 47.6304 166.407 53.4144 169.064 58.5113L170.567 61.3899L168.378 64.1314C165.043 68.2964 162.169 72.9846 162.245 74.1072C162.342 75.271 163.262 75.6306 164.42 74.9664C164.877 74.6988 166.889 72.8967 168.875 70.9495C174.103 65.8376 173.427 66.036 175.431 69.0729C178.683 74.0144 179.362 74.9502 180.308 75.4549C181.159 75.93 181.272 75.897 181.487 75.1754C181.872 73.8892 181.743 73.4022 179.349 67.7703C177.814 64.1951 177.197 62.2489 177.416 61.9747C179.03 60.0127 185.861 50.2232 186.02 49.6899C186.33 48.6546 185.344 48.5147 183.976 49.4216Z" fill="#EBA900"/>
<path d="M204.568 69.3585C201.305 68.7772 196.938 70.1997 194.044 72.7799C193.027 73.7039 192.764 73.7939 191.575 73.4875C190.039 73.1056 186.935 73.232 185.735 73.7524C184.615 74.229 184.221 75.6614 184.927 76.6803C185.517 77.5242 188.099 79.482 189.947 80.5156C190.762 80.9461 191.15 81.4495 191.494 82.6654C193.986 90.788 202.306 94.6282 209.38 90.9125C211.694 89.7063 211.735 89.6844 214.384 90.1758C218.741 90.9298 221.297 90.0422 221.033 87.8827C220.859 86.5476 219.08 84.9473 216.935 84.2347C215.282 83.6778 215.147 83.5659 215.219 82.7585C215.614 77.8315 212.93 72.8315 208.83 70.8785C208.129 70.5186 207.274 70.11 206.945 69.9714C206.625 69.8011 205.56 69.5336 204.568 69.3585ZM209.332 73.1475C211.042 74.4146 213.05 77.9555 213.369 80.2706C213.495 81.3139 213.425 82.6758 213.179 83.4977C212.669 85.2049 211.591 87.0093 210.963 87.1917C210.346 87.3425 204.492 85.2849 199.502 83.1545C192.525 80.1193 192.598 80.2117 193.458 77.3348C194.629 73.4146 198.243 70.6813 202.045 70.8103C204.318 70.8711 207.756 71.9923 209.332 73.1475ZM191.843 77.1013C191.314 78.8717 191.215 78.9787 190.599 78.7841C189.768 78.5214 187.532 76.9844 186.729 76.177C186.447 75.8803 186.326 75.4961 186.505 75.3453C187.014 74.8832 190.378 74.5623 191.425 74.8931L192.41 75.2044L191.843 77.1013ZM218.385 87.046C218.926 87.4935 219.243 88.0091 219.115 88.2109C218.702 88.8067 217.014 88.9307 214.996 88.4661L213.123 88.0819L213.582 87.2234C214.658 85.3144 214.617 85.3363 216.064 85.7935C216.834 86.0367 217.876 86.6083 218.385 87.046ZM202.281 86.1433C205.828 87.5758 208.791 88.8235 208.855 88.9475C209.057 89.288 207.106 89.9518 205.096 90.2509C202.284 90.6423 198.876 89.5309 196.649 87.5123C195.171 86.1456 193.344 83.3537 193.533 82.7214C193.58 82.5633 194.113 82.6971 194.731 82.9963C195.318 83.2857 198.733 84.7108 202.281 86.1433Z" fill="#EBA900"/>
<path d="M241.336 88.61C240.964 88.8412 239.871 90.5877 238.758 92.851L236.832 96.7057L233.034 97.0396C229.368 97.3805 227.53 98.0199 227.216 99.0712C226.959 99.9315 227.888 101.097 229.596 102.02C233.115 103.969 234.941 105.174 235.32 105.816C235.542 106.2 235.844 108.562 236.059 111.106C236.455 116.531 236.774 118.166 237.579 118.734C238.993 119.739 240.327 117.301 242.411 109.766C243.008 107.653 243.689 105.602 243.945 105.195C244.22 104.724 245.789 103.86 247.888 103.024C250.844 101.796 251.386 101.444 251.624 100.648C252.005 99.3736 251.285 98.9716 247.55 98.4189C243.356 97.8259 243.201 97.6721 243.28 93.5826C243.367 88.903 242.873 87.6311 241.336 88.61ZM241.43 95.1599C241.373 98.8379 242.234 99.668 246.745 100.326L248.123 100.553L246.752 101.2C246.007 101.558 244.819 102.158 244.123 102.461C242.381 103.341 241.714 104.559 240.029 110.199C239.143 113.161 238.468 114.97 238.372 114.731C238.266 114.523 238.073 112.579 237.938 110.444C237.781 108.268 237.533 106.062 237.359 105.519C236.955 104.171 234.915 102.446 232.201 101.065C230.968 100.466 230.009 99.8494 230.038 99.7538C230.142 99.4034 235.22 98.9507 236.049 99.2129C236.879 99.475 237.147 99.1412 239.908 94.4002C240.537 93.3087 241.13 92.45 241.253 92.4889C241.376 92.5277 241.451 93.7371 241.43 95.1599Z" fill="#EBA900"/>
<path d="M137.253 62.701C136.65 63.2185 135.756 66.9022 135.722 68.9806C135.666 73.2121 137.785 77.6709 140.277 78.4582C141.664 78.8968 144.21 77.541 145.285 75.7915C146.842 73.2382 147.077 68.6383 145.736 66.196C145.354 65.5089 144.66 64.8291 143.901 64.4829C142.814 63.9623 142.501 63.9697 141.347 64.5966C140.152 65.2458 140.021 65.4524 139.702 66.9806C139.331 68.9171 140.022 70.7642 141.495 71.7255C143.38 72.9234 143.802 72.2067 142.516 69.9237C141.797 68.6341 141.671 68.1337 141.988 67.4195C142.263 66.7276 142.511 66.5932 143.141 66.7926C143.772 66.9919 143.981 67.4475 144.281 69.1004C144.584 70.8603 144.545 71.4502 143.938 73.1352C143.37 74.6907 142.997 75.2457 142.204 75.7034C140.908 76.4622 140.35 76.2504 139.264 74.4554C138.015 72.3964 137.403 69.016 137.754 65.7628C138.042 62.9502 137.917 62.0963 137.253 62.701Z" fill="#EBA900"/>
<path d="M91.0678 55.2488C89.6287 55.3452 89.8594 56.1072 91.6378 57.117C93.9584 58.436 95.551 61.2475 95.53 64.0314C95.54 66.2394 96.2285 66.767 97.2009 65.2829C98.2996 63.4941 98.1299 60.9945 96.7505 58.7672C95.2384 56.3945 93.1527 55.1153 91.0678 55.2488Z" fill="#EBA900"/>
<path d="M80.0297 56.948C77.2938 57.0576 75.4057 57.609 72.9239 59.0165C70.0788 60.6223 67.8534 62.5284 65.8775 65.0699C65.0035 66.1854 64.2388 67.1614 64.1581 67.2054C64.1082 67.2593 63.6118 66.5457 63.049 65.6025C61.4459 62.9389 58.5176 61.3177 56.4063 61.9377C54.0622 62.6582 51.3667 65.4594 49.2079 69.4043C48.4717 70.7372 47.6119 72.0311 47.3198 72.2171C47.0182 72.4349 44.5055 73.3804 41.7578 74.3212C36.5567 76.1218 34.7683 77.0179 34.4549 78.0669C34.2269 78.8298 34.8752 79.0347 36.6564 78.7279C37.4093 78.5831 39.2403 78.6746 40.7175 78.9327C42.1544 79.2128 44.6029 79.4995 46.1585 79.6084C51.2242 79.9568 52.1576 80.1126 52.528 80.6819C52.7085 80.9825 53.2215 82.4319 53.6538 83.9253C54.96 88.3738 57.2185 91.1054 60.3582 92.1324C62.9516 92.9519 65.8704 91.8912 68.4448 89.1561L69.314 88.2827L69.9101 89.7932C70.9646 92.5965 73.0783 96.1521 74.4676 97.4957C76.2536 99.2082 78.6332 100.065 80.4121 99.6526C82.4545 99.1499 84.3544 96.8627 85.5538 93.4147L86.5631 90.6026L87.4632 91.0957C95.4382 95.3903 102.596 96.0867 107.565 93.0297C109.227 91.9894 110.999 89.9052 111.436 88.443C111.844 87.0761 111.566 84.2746 110.813 82.6103C108.916 78.2184 103.62 75.8142 95.0179 75.4268C93.1559 75.3255 91.4863 75.1458 91.2987 74.9821C91.1016 74.8502 91.237 73.6057 91.674 71.6912C92.7712 66.8889 92.5836 64.9161 90.6622 62.1867C88.3918 58.9295 83.9792 56.7349 80.0297 56.948ZM87.753 61.4065C90.7857 64.0349 91.2773 66.3473 90.0495 71.6997C88.8953 76.6927 89.0829 76.8564 95.4263 77.2258C98.148 77.3901 99.82 77.6749 102.413 78.4945C105.479 79.4286 105.976 79.6898 107.322 80.9503C112.008 85.2839 109.617 91.5907 102.874 92.5563C98.9127 93.1484 94.7542 92.2517 89.6291 89.7276C87.0049 88.446 86.6035 88.3191 85.8316 88.5275C84.8579 88.846 84.9553 88.6333 83.7631 92.3966C81.0747 100.94 75.6147 99.4238 71.7008 89.0022C70.9836 87.1056 70.1809 85.4951 69.9648 85.4268C69.3781 85.2414 68.7559 85.7406 67.7656 87.1324C65.982 89.5955 63.03 90.9936 60.8997 90.3204C58.4915 89.5594 56.1902 86.2924 55.0075 81.883C54.504 79.9495 53.7036 78.8964 52.4687 78.5062C52.0982 78.3891 49.7826 78.1096 47.346 77.8962C41.2638 77.331 40.1262 77.1803 40.2402 76.7988C40.2972 76.6081 42.0594 75.9125 44.1802 75.2606C46.2796 74.5673 48.2745 73.7713 48.5952 73.4899C48.9253 73.1767 49.6758 72.0223 50.2742 70.9242C52.4022 66.9695 55.1547 63.9775 57.0665 63.5728C58.9285 63.2218 61.7523 65.645 62.4861 68.2774C62.878 69.7929 63.6498 70.4891 64.3861 70.0607C64.6782 69.8747 65.5023 68.8131 66.2646 67.732C69.941 62.214 75.7477 58.726 81.0628 58.8053C83.0767 58.8503 86.2306 60.0557 87.753 61.4065Z" fill="#EBA900"/>
<path d="M148.267 81.9363C148.019 82.4385 147.502 83.8454 147.119 85.1244L146.439 87.4017L144.017 87.8996C140.595 88.5936 140.893 89.3363 144.728 89.8656L146.129 90.0692L146.33 91.5669C146.476 92.6028 146.751 93.202 147.177 93.4051C147.772 93.6955 147.83 93.6113 148.399 91.7084L149.005 89.6807L151.505 89.1391C154.455 88.501 155.152 87.7994 153.401 87.2462C152.778 87.0493 151.586 86.9114 150.749 86.886L149.245 86.9227L149.289 86.0147C149.56 81.6281 149.192 80.1459 148.267 81.9363Z" fill="#EBA900"/>
<path d="M172.953 91.4966C171.115 92.6057 166.627 97.4299 166.241 98.722C165.789 100.235 166.351 101.378 167.845 102.092C169.339 102.805 169.321 102.868 167.037 106.251C166.056 107.631 164.9 109.369 164.42 110.08C163.599 111.372 163.568 111.363 162.041 110.984C155.981 109.414 151.324 110.322 148.211 113.683C146.076 116.009 145.628 119.524 147.247 121.725C148.261 123.149 151.664 124.087 153.789 123.586C156.507 122.892 160.1 120.614 162.452 118.011L164.577 115.717L165.812 116.624C168.273 118.471 170.438 122.88 169.908 124.989L169.628 126.039L167.574 125.631C160.639 124.302 152.621 129.735 152.067 136.182C151.447 143.298 158.97 145.123 165.738 139.502C167.607 137.954 169.923 135.134 170.803 133.308C172.091 130.68 172.202 130.646 173.197 132.581C174.244 134.568 174.521 136.104 175.09 142.043C175.574 147.37 175.858 148.322 176.779 147.819C177.659 147.339 177.324 137.369 176.308 133.599C176.021 132.543 175.162 130.823 174.306 129.655C173.03 127.873 172.847 127.366 172.896 125.968C173.034 122.149 171.152 117.691 168.276 114.989C167.469 114.217 166.665 113.548 166.512 113.5C166.083 113.365 166.265 112.87 167.604 110.741C168.279 109.713 169.428 107.662 170.184 106.142L171.591 103.448L172.78 103.616C174.495 103.814 175.747 103.658 176.131 103.158C176.298 102.935 176.406 100.555 176.346 97.8455C176.198 91.2805 175.511 89.9942 172.953 91.4966ZM161.257 114.84C159.96 117.051 155.996 120.007 153.469 120.622C148.052 121.945 147.217 116.784 152.39 114.038C154.811 112.769 156.934 112.612 159.788 113.479L161.725 114.057L161.257 114.84ZM169.505 129.138C169.569 129.262 169.126 130.295 168.566 131.497C165.922 136.87 159.973 141.094 156.516 140.002C155.078 139.548 154.49 138.603 154.53 136.788C154.658 131.655 160.485 127.392 166.585 128.043C167.884 128.178 169.303 128.695 169.505 129.138Z" fill="#EBA900"/>
<path d="M208.429 103.022C207.936 103.528 205.908 107.455 204.493 110.703C203.994 111.801 203.465 112.54 203.137 112.611C202.849 112.659 201.348 112.534 199.794 112.356C197.224 112.033 196.063 112.258 195.806 113.118C195.606 113.787 196.733 115.05 198.611 116.201C199.743 116.873 200.903 117.797 201.161 118.193C201.472 118.64 201.553 120.199 201.473 122.754C201.24 128.224 201.531 129.537 202.918 129.243C203.854 129.085 204.052 128.764 206.232 123.874C207.258 121.584 208.18 119.644 208.333 119.588C208.455 119.522 210.039 119.255 211.861 118.994C216.759 118.276 217.97 117.542 216.691 115.988C216.221 115.386 215.553 115.105 213.184 114.566C209.922 113.814 209.51 113.475 209.756 111.739C209.824 111.168 210.1 109.442 210.329 107.876C210.882 104.424 210.694 103.11 209.663 102.784C209.257 102.656 208.681 102.752 208.429 103.022ZM208.004 109.477C207.152 114.159 207.515 115.005 210.576 115.973C211.669 116.318 212.515 116.69 212.477 116.818C212.429 116.977 211.421 117.147 210.226 117.257C207.238 117.533 206.713 118.03 205.057 121.969C204.268 123.812 203.561 125.262 203.405 125.212C203.28 125.173 203.192 124.552 203.235 123.834C203.27 123.148 203.335 121.669 203.368 120.529C203.492 118.058 202.946 116.909 201.125 115.566C199.978 114.716 199.828 114.529 200.342 114.412C200.702 114.352 201.624 114.469 202.414 114.684C204.101 115.217 204.142 115.195 206.279 110.675C207.153 108.894 207.954 107.474 208.11 107.523C208.235 107.562 208.206 108.46 208.004 109.477Z" fill="#EBA900"/>
<path d="M123.856 77.0018C123.676 77.2519 123.281 78.2189 122.983 79.2163L122.443 81.0242L120.623 81.2338C118.362 81.5087 117.607 81.9183 118.16 82.5366C118.503 82.9178 120.628 83.4527 122.079 83.536C122.46 83.5541 122.701 84.0398 122.849 85.0756C122.987 86.1427 123.251 86.6697 123.7 86.8117C124.246 86.9842 124.417 86.7653 124.979 85.2372C125.332 84.2912 125.735 83.5315 125.895 83.5822C126.505 83.775 132.87 83.0571 133.206 82.754C134.146 81.9595 132.459 81.2557 128.8 80.9181C125.586 80.6189 125.586 80.6189 125.369 78.6399C125.161 76.8683 124.52 76.1884 123.856 77.0018Z" fill="#EBA900"/>
<path d="M217.507 109.162C215.343 110.122 214.673 110.763 215.609 111.059C216.202 111.246 220.403 109.414 220.367 108.96C220.325 108.188 219.552 108.26 217.507 109.162Z" fill="#EBA900"/>
<path d="M195.065 102.689C194.484 103.547 195.812 107.202 196.838 107.526C197.998 107.892 197.983 105.471 196.824 103.617C195.959 102.266 195.494 102.044 195.065 102.689Z" fill="#EBA900"/>
<path d="M230.924 122.242C228.953 123.829 229.45 128.509 231.752 130.376C232.375 130.849 232.719 130.923 233.419 130.695C234.509 130.384 234.673 129.503 234.291 126.551C233.823 122.778 232.428 120.991 230.924 122.242Z" fill="#EBA900"/>
<path d="M140.589 98.9185C140.4 99.0987 139.78 99.9308 139.212 100.814L138.132 102.392L135.059 101.592C132.489 100.917 131.927 100.876 131.703 101.286C131.442 101.82 133.554 103.687 135.674 104.734L136.844 105.344L136.123 107.755C135.328 110.417 135.279 111.258 135.835 111.434C136.391 111.61 137.11 110.672 138.36 108.188C138.941 107.035 139.589 106.108 139.775 106.167C140.732 106.47 142.646 106.286 142.758 105.91C142.917 105.378 142.569 104.959 141.409 104.319C140.517 103.797 140.526 103.765 141.055 101.431C141.556 99.1897 141.407 98.2173 140.589 98.9185Z" fill="#EBA900"/>
<path d="M222.466 126.263C221.138 126.685 220.354 128.658 220.776 130.507C221.497 133.528 222.635 134.83 223.674 133.745C224.695 132.722 224.582 127.773 223.546 126.672C222.974 126.087 222.974 126.087 222.466 126.263Z" fill="#EBA900"/>
<path d="M209.15 123.099C208.999 123.606 210.758 125.482 211.661 125.802C212.662 126.118 212.426 124.967 211.281 123.946C209.89 122.673 209.34 122.464 209.15 123.099Z" fill="#EBA900"/>
<path d="M238.814 135.992C237.566 137.085 237.457 137.327 236.879 139.877C236.246 142.858 236.314 143.986 237.256 144.284C238.232 144.592 238.757 144.067 239.982 141.445C241.018 139.213 241.404 137.675 241.409 135.809C241.408 134.703 240.209 134.773 238.814 135.992Z" fill="#EBA900"/>
<path d="M117.692 101.489C117.444 101.754 117.04 102.315 116.816 102.726C116.328 103.57 115.218 103.563 112.445 102.687C110.781 102.162 109.642 102.249 109.436 102.941C109.285 103.444 110.632 104.352 113.311 105.543C115.392 106.476 115.628 106.929 115.097 108.93C114.602 110.701 114.68 111.792 115.228 112.103C115.89 112.484 116.697 111.363 117.327 109.255L117.834 107.557L120.952 108.405C124.256 109.311 125.598 109.219 124.289 108.186C123.914 107.861 122.412 106.904 120.975 106.071C118.637 104.644 118.428 104.44 118.626 103.78C118.926 102.774 118.807 101.256 118.437 101.139C118.252 101.08 117.931 101.254 117.692 101.489Z" fill="#EBA900"/>
<path d="M211.237 136.794C209.617 137.272 207.749 139.027 207.025 140.777C206.32 142.46 206.489 143.356 207.624 143.715C208.974 144.141 214.036 140.574 214.556 138.833C214.766 138.13 213.983 136.929 213.155 136.668C212.756 136.542 211.899 136.601 211.237 136.794Z" fill="#EBA900"/>
<path d="M225.275 141.15C224.29 141.818 223.776 143.868 224.038 146.162C224.261 148.372 224.939 148.949 226.093 147.936C226.918 147.254 227.71 144.821 227.539 143.643C227.368 142.465 226.708 140.951 226.29 140.819C226.08 140.752 225.643 140.904 225.275 141.15Z" fill="#EBA900"/>
<path d="M86.3569 99.2487C86.1374 99.3212 85.512 99.8689 84.9373 100.468C83.6596 101.874 82.5145 102.506 80.5548 102.774C78.4853 103.078 75.7036 102.235 73.9164 100.712C72.6747 99.6805 72.5639 99.61 72.228 100.072C71.734 100.732 72.9648 102.682 74.5271 103.744C76.9665 105.402 81.2441 105.654 83.543 104.251C84.996 103.361 86.5104 101.604 86.9077 100.274C87.2178 99.2368 87.0952 98.9851 86.3569 99.2487Z" fill="#EBA900"/>
<path d="M191.82 136.619C189.983 136.768 188.747 138.944 189.009 141.526C189.103 142.249 189.571 143.681 190.081 144.744C191.043 146.713 191.23 148.508 190.672 150.378C190.293 151.646 190.135 151.596 188.958 150.114C187.728 148.58 186.696 147.768 185.905 147.761C183.452 147.784 184.966 152.981 188.057 155.207C188.929 155.864 188.985 156.021 188.654 157.131C188.151 158.811 186.192 162.945 185.94 162.866C185.846 162.836 184.845 162.034 183.747 161.097C181.572 159.264 180.523 158.968 180.182 160.109C179.68 161.789 181.183 164.485 183.277 165.667C184.249 166.217 184.272 166.259 183.719 167.299C181.24 172.136 173.608 180.723 167.633 185.497C163.882 188.475 163.64 188.711 163.951 189.052C164.392 189.538 167.877 187.447 170.984 184.89C174.792 181.722 179.791 176.293 182.768 172.099C184.205 170.055 185.621 168.316 185.93 168.206C186.207 168.085 187.164 168.11 188.021 168.242C190.676 168.699 194.163 167.407 194.07 165.99C194.014 165.139 193.255 164.796 190.717 164.41C189.36 164.224 188.229 163.971 188.195 163.856C188.031 163.596 190.697 157.326 191.035 157.12C191.167 157.023 192.209 157.109 193.368 157.267C195.812 157.623 197.352 157.312 198.6 156.249C199.827 155.145 200.146 153.962 199.412 153.071C198.626 152.128 197.171 152.154 194.402 153.118C193.289 153.495 192.288 153.734 192.159 153.589C192.061 153.454 192.286 151.894 192.672 150.143C193.225 147.715 193.648 146.53 194.452 145.223C196.139 142.46 196.223 139.642 194.653 137.862C193.781 136.858 193.023 136.514 191.82 136.619ZM193.754 139.486C194.226 140.329 194.219 140.813 193.765 142.334C192.997 144.902 192.619 145.13 191.682 143.654C190.757 142.251 190.452 140.733 190.822 139.496C191.343 137.752 192.861 137.746 193.754 139.486ZM188.085 151.885C188.534 152.687 188.795 153.428 188.6 153.505C188.272 153.679 186.57 151.302 186.53 150.63C186.518 149.863 187.21 150.429 188.085 151.885ZM197.386 154.894C196.207 155.84 193.429 156.142 193.685 155.286C193.799 154.905 197.16 153.92 197.727 154.099C198.042 154.199 197.985 154.389 197.386 154.894ZM183.757 163.251C185.208 164.508 185.419 165.303 184.137 164.516C183.058 163.863 182.532 163.315 182.199 162.585C181.863 161.75 182.136 161.872 183.757 163.251ZM190.495 166.421C190.069 166.807 187.984 166.981 187.134 166.713C186.158 166.404 186.785 165.804 188.177 165.758C189.705 165.721 190.911 166.067 190.495 166.421Z" fill="#EBA900"/>
<path d="M96.9595 107.42C96.8933 107.641 97.0289 109.103 97.2378 110.658L97.6296 113.516L96.7115 113.884C96.1862 114.064 95.7012 114.222 95.6089 114.193C95.5166 114.164 95.1893 112.78 94.836 111.145C94.2952 108.447 93.6201 106.988 93.057 107.294C92.9458 107.329 92.9063 109.151 92.9452 111.275L93.0345 115.145L90.7111 116.384C88.6077 117.45 88.4279 117.601 89.015 117.89C89.3558 118.102 90.3853 118.15 91.2893 118.055C92.2027 117.928 92.9647 117.858 93.0263 117.877C93.2416 117.945 93.6292 121.945 93.478 122.451C93.3929 122.735 92.501 123.353 91.4836 123.828C90.4354 124.293 89.6949 124.855 89.7802 125.021C89.8655 125.186 90.7648 125.332 91.7517 125.297C92.7693 125.273 93.6875 125.355 93.8344 125.54C93.9906 125.693 94.4079 127.452 94.7591 129.432C95.5822 133.777 96.1791 134.935 96.9737 133.628C97.1794 133.278 97.285 131.234 97.1917 128.955L97.0573 124.897L97.9446 124.52L98.8224 124.174L99.4322 127.655C99.8688 130.251 100.186 131.217 100.617 131.353C101.448 131.615 101.878 129.951 101.983 126.107C102.015 124.422 102.095 123.028 102.166 123.015C103.16 122.845 106.328 121.146 106.46 120.703C106.706 119.881 106.133 119.769 103.802 120.244L101.765 120.639L101.366 118.366C101.143 117.084 100.923 115.907 100.899 115.761C100.885 115.583 101.798 115.007 102.905 114.457C104.012 113.907 104.975 113.276 105.032 113.086C105.278 112.264 104.265 112.048 102.35 112.481C101.267 112.727 100.273 112.898 100.15 112.859C99.9958 112.81 99.4818 111.713 98.9629 110.407C98.0199 107.928 97.1769 106.693 96.9595 107.42ZM98.1213 117.618C98.2659 118.148 98.4131 119.233 98.4419 120.039C98.5135 121.377 98.4355 121.525 97.8392 121.717C97.4961 121.851 97.0702 121.924 96.9471 121.885C96.7932 121.837 96.5229 120.713 96.3093 119.399C95.9604 117.074 95.9485 117.001 96.6655 116.743C97.6759 116.404 97.7895 116.475 98.1213 117.618Z" fill="#EBA900"/>
<path d="M231.592 154.124C230.017 155.089 229.917 158.217 231.374 160.207C232.101 161.268 232.777 161.449 233.513 160.85C234.117 160.342 234.058 157.63 233.386 155.455C232.914 154.009 232.405 153.616 231.592 154.124Z" fill="#EBA900"/>
<path d="M212.865 148.943C212.065 149.491 211.82 150.086 211.671 151.929C211.5 154.181 211.587 154.561 212.383 154.813C213.637 155.209 214.805 152.535 214.364 150.313C214.08 148.91 213.577 148.463 212.865 148.943Z" fill="#EBA900"/>
<path d="M220.256 154.917C218.502 156.032 218.228 156.726 217.862 161.049C217.836 161.467 217.982 161.974 218.224 162.157C219.388 163.129 220.996 161.4 222.034 158.036C222.927 155.158 222.15 153.776 220.256 154.917Z" fill="#EBA900"/>
<path d="M126.242 128.699C123.905 128.883 121.075 131.955 119.317 136.153L118.486 138.147L116.326 137.293C113.889 136.352 112.219 136.44 111.033 137.604C109.332 139.254 110.714 143.384 114.219 147.261C115.157 148.276 115.994 149.293 116.082 149.56C116.179 149.796 116.291 150.993 116.353 152.244C116.485 155.397 117.585 159.574 118.433 160.218C119.136 160.783 120.439 160.579 125.964 159.042L127.896 158.525L130.242 159.881C133.822 161.936 135.973 162.821 138.203 163.218C142.712 163.959 144.349 162.185 142.562 158.509C141.941 157.219 138.723 153.842 137.865 153.571C137.65 153.503 137.485 153.383 137.504 153.32C137.522 153.258 138.706 151.991 140.158 150.501C143.336 147.162 144.858 144.429 144.926 141.955C144.986 139.956 144.218 138.824 142.47 138.272C140.355 137.604 138.149 138.138 133.987 140.276C131.887 141.356 130.112 142.129 130.058 141.975C129.963 141.842 130.049 141.219 130.217 140.657C130.702 139.033 131.036 134.659 130.766 133.206C130.421 131.216 129.124 129.268 127.92 128.921C127.368 128.747 126.625 128.649 126.242 128.699ZM127.611 132.311C128.381 133.888 128.327 135.752 127.388 140.242C126.44 144.763 126.509 145.879 127.735 146.267C128.011 146.354 129.453 145.682 130.93 144.781C137.518 140.81 140.531 139.711 142.086 140.681L142.91 141.181L142.019 143.6C141.252 145.717 140.823 146.368 139.037 148.3C136.068 151.499 131.485 154.598 128.326 155.515C127.582 155.758 127.264 155.589 124.764 153.739C123.276 152.654 121.239 151.053 120.245 150.225C118.443 148.733 118.443 148.733 118.627 147.218C118.747 146.367 119.456 143.548 120.252 140.996C121.898 135.601 123.234 133.151 125.219 131.897C126.625 131.008 127.012 131.062 127.611 132.311ZM117.494 139.782C117.823 140.365 116.793 146.057 116.353 146.295C115.784 146.628 113.08 142.764 112.63 141.015C112.482 140.387 112.412 139.612 112.505 139.3C112.86 138.113 116.833 138.514 117.494 139.782ZM138.573 156.701C140.151 158.157 141.562 160.621 141.097 161.055C140.601 161.48 138.478 161.287 136.485 160.658C134.738 160.105 130.814 158.079 130.589 157.598C130.525 157.475 131.621 156.727 133.061 155.951C135.959 154.337 136.081 154.375 138.573 156.701ZM121.853 154.05C125.574 156.867 125.568 156.661 122.139 157.697C120.51 158.208 119.09 158.58 118.998 158.551C118.538 158.405 117.978 151.971 118.449 151.744C118.578 151.648 118.885 151.745 119.093 151.947C119.341 152.128 120.571 153.064 121.853 154.05Z" fill="#EBA900"/>
<path d="M205.994 159.483C205.087 160.237 204.916 160.6 204.13 163.336C203.172 166.539 203.143 167.883 204.02 168.16C204.841 168.42 205.314 167.875 206.478 165.224C207.462 162.966 207.86 161.426 207.948 159.58C208.005 158.661 207.09 158.614 205.994 159.483Z" fill="#EBA900"/>
<path d="M224.088 166.329C222.962 166.893 222.663 168.278 223.094 170.682C223.372 172.184 223.658 172.767 224.182 172.933C225.197 173.254 226.308 172.355 226.757 170.854C227.178 169.442 227.036 168.509 226.24 167.074C225.607 165.987 225.126 165.802 224.088 166.329Z" fill="#EBA900"/>
<path d="M60.9725 117.045C60.5424 117.559 60.8818 117.927 63.5117 119.766C65.7981 121.366 66.8677 121.834 67.3256 121.459C67.6936 121.152 66.6209 120 64.375 118.38C62.0974 116.75 61.4521 116.481 60.9725 117.045Z" fill="#EBA900"/>
<path d="M55.6557 118.996C55.0085 121.162 56.2629 126.264 57.5491 126.671C58.2417 126.889 58.3331 126.221 58.0399 123.096C57.6916 119.43 56.2553 116.989 55.6557 118.996Z" fill="#EBA900"/>
<path d="M211.472 171.33C209.902 172.725 210.128 176.763 211.901 178.435C212.48 178.952 212.682 178.979 213.227 178.558C214.098 177.869 214.227 176.501 213.686 173.513C213.193 170.836 212.655 170.295 211.472 171.33Z" fill="#EBA900"/>
<path d="M222.24 181.124C221.602 181.916 221.268 185.72 221.766 186.294C222.338 186.955 222.84 186.953 223.382 186.26C224.221 185.243 224.545 183.711 224.249 182.24C223.926 180.632 223.04 180.127 222.24 181.124Z" fill="#EBA900"/>
<path d="M91.7093 141.287C91.0909 141.436 88.5728 142.295 86.1472 143.182L81.72 144.781L79.6746 142.929C76.9093 140.435 72.5993 137.35 71.2422 136.921C70.5328 136.697 69.881 136.732 69.3885 137.025C68.2333 137.728 68.5824 139.045 71.5813 145.162C73.0654 148.215 74.1715 150.839 74.0439 151.04C73.9258 151.21 72.301 151.902 70.4416 152.59C68.5822 153.277 66.4034 154.243 65.5889 154.709C64.121 155.555 64.121 155.555 62.8632 159.086C60.7951 164.877 56.268 171.442 51.5643 175.435C45.2635 180.818 35.5764 185.787 25.6358 188.78C21.1417 190.151 19.8939 190.825 19.9603 191.845C20.0533 193.115 23.6571 193.255 33.5078 192.37C40.6208 191.723 51.8594 189.244 59.6458 186.569C67.5435 183.861 75.8181 179.102 79.673 175.013C80.3186 174.321 81.27 173.622 81.7462 173.497C82.6061 173.217 83.3767 172.22 86.6664 166.746L88.0763 164.4L89.9592 164.651C93.4878 165.042 97.2312 165.053 98.0576 164.66C98.5313 164.43 98.9876 163.92 99.1099 163.51C99.3922 162.566 98.7409 161.808 94.1727 157.78C92.3055 156.122 90.6756 154.573 90.559 154.398C90.4304 154.151 91.007 152.334 92.0348 149.799C93.8567 145.171 94.3345 142.668 93.6162 141.683C93.0669 140.923 93.0669 140.923 91.7093 141.287ZM91.2821 146.218C90.8775 147.572 90.0484 149.895 89.4425 151.357L88.3676 154.05L88.9986 155.215C89.3817 155.853 91.088 157.598 92.7769 159.062C95.9364 161.818 96.8893 162.809 96.5271 163.004C96.4157 163.038 94.4669 163.008 92.1883 162.839C87.8991 162.621 86.6717 162.888 85.8834 164.396C84.5969 166.781 82.3181 170.679 81.9208 171.105C81.4833 171.553 81.431 171.502 81.1205 170.507C80.9318 169.896 80.4478 167.676 80.0375 165.547C79.6271 163.419 79.0103 161.191 78.6983 160.541C77.9816 159.211 76.807 158.737 72.0568 158.028C68.6678 157.509 66.3265 156.872 66.4394 156.494C66.477 156.368 68.5754 155.446 71.0908 154.484C74.9801 152.99 75.7046 152.599 75.9211 151.875C76.2504 150.772 75.6681 149.107 73.2547 143.967C71.5631 140.366 71.2004 139.32 71.6938 139.476C71.7864 139.506 73.8977 141.138 76.3629 143.054L80.8376 146.605L83.3207 145.976C84.6688 145.644 87.0876 144.892 88.6036 144.338C90.1598 143.761 91.5885 143.385 91.7239 143.497C91.9209 143.628 91.7244 144.738 91.2821 146.218ZM73.9815 164.013C66.3209 174.963 54.8439 182.984 41.3444 186.817C37.9826 187.788 32.4989 188.743 32.6213 188.333C32.6401 188.271 34.6673 187.36 37.1185 186.274C42.7788 183.824 48.5699 180.485 52.0483 177.655C57.4458 173.261 61.8155 167.336 63.7749 161.683L64.9668 158.372L67.3202 159.082C68.6155 159.491 70.9851 160.033 72.5623 160.29C74.1702 160.557 75.5461 160.923 75.6318 161.088C75.7578 161.231 74.9857 162.572 73.9815 164.013ZM77.8942 165.49C78.0479 166.331 78.5026 168.198 78.8853 169.629C79.2987 171.069 79.5956 172.335 79.5674 172.429C79.4545 172.807 75.6943 175.788 72.6268 177.921C64.7473 183.391 52.9912 187.603 39.4499 189.768C32.582 190.837 30.1784 190.973 34.9982 189.981C43.37 188.284 48.9227 186.42 55.238 183.247C63.739 178.972 71.2949 171.986 75.7531 164.297C76.9549 162.195 76.9643 162.164 77.303 163.063C77.4677 163.529 77.7499 164.618 77.8942 165.49Z" fill="#EBA900"/>
<path d="M52.4483 130.054C51.8731 130.48 52.6831 131.344 55.363 133.214C57.2802 134.524 58.2037 135.008 58.4852 134.873C59.2092 134.526 58.6423 133.771 56.5571 132.216C54.2463 130.494 52.8225 129.725 52.4483 130.054Z" fill="#EBA900"/>
<path d="M58.893 144.915C58.7989 145.024 57.7502 147.812 56.5876 151.085C53.9412 158.5 51.7053 163.305 48.3708 168.595C45.6203 172.961 45.1769 173.93 45.7672 174.117C46.5823 174.374 48.5856 172.303 51.1562 168.54C53.2183 165.551 54.5197 162.946 56.2206 158.284C58.6112 151.829 60.2752 143.584 58.893 144.915Z" fill="#EBA900"/>
<path d="M201.508 190.773C197.542 190.284 192.416 192.209 189.174 195.389C188.306 196.261 187.517 196.985 187.467 197.039C187.427 197.061 186.783 196.51 186.084 195.802C181.416 191.234 175.241 191.368 170.598 196.19C167.998 198.913 166.734 201.224 165.925 204.722C165.552 206.307 165.206 208.143 165.137 208.712C165.016 209.681 164.916 209.789 164.393 209.624C163.346 209.293 160.715 209.747 159.061 210.545C155.843 212.065 154.482 215.04 155.346 218.58C156.044 221.545 157.517 223.158 160.601 224.341C161.937 224.833 162.989 225.374 162.951 225.501C162.79 226.04 164.814 229.981 165.797 231.091C167.95 233.474 169.874 234.708 173.953 236.171C178.362 237.772 181.686 238.267 185.837 237.911C188.676 237.661 192.647 236.553 194.479 235.499C195.536 234.894 195.882 234.865 197.36 235.332C200.902 236.451 205.928 235.989 209.802 234.19C211.236 233.566 212.378 232.676 213.682 231.246C215.315 229.503 215.618 228.939 216.216 226.939C217.279 223.383 216.55 220.407 213.964 217.783C212.796 216.615 212.583 216.2 212.858 215.731C215.321 211.436 215.922 208.637 215.314 204.692C214.253 197.754 208.163 191.625 201.508 190.773ZM206.098 195.038C209.673 197.175 212.129 200.801 212.909 205.183C213.283 207.316 213.242 207.79 212.512 210.235C211.93 212.067 211.406 213.256 210.83 213.943L209.946 214.984L207.636 214.254C203.971 213.096 199.875 213.608 198.151 215.427C197.066 216.578 196.741 218.004 197.337 219.166C198.808 222.028 203.89 222.279 208.471 219.696L210.777 218.409L212.12 219.667C214.107 221.477 214.611 223.513 213.795 226.243C213.005 228.774 211.723 230.245 209.002 231.679C206.192 233.188 201.363 233.782 198.766 232.996C198.027 232.762 197.972 232.606 198.295 231.075C198.827 228.394 197.2 226.281 194.537 226.169C191.843 226.047 190.567 228.737 192.007 231.59L192.807 233.198L191.79 233.78C190.432 234.602 185.677 235.288 182.523 235.126C179.33 234.985 173.563 233.302 171.308 231.825C169.385 230.592 167.442 228.518 166.6 226.827L165.927 225.468L167.003 225.252C169.399 224.793 170.427 222.929 169.414 220.906C168.008 218.168 164.243 218.924 163.284 222.131C162.99 223.115 162.848 223.14 161.367 222.567C159.218 221.749 157.222 218.617 157.408 216.416C157.615 213.806 160.163 211.936 163.416 211.991L165.385 212.057L166.476 213.931C168.141 216.82 170.37 217.594 170.987 215.53C171.366 214.26 170.564 212.547 168.946 211.306C167.638 210.267 167.596 210.184 167.634 208.25C167.745 203.594 170.429 198.674 174.256 196.13C177.631 193.861 182.502 194.705 184.889 197.996L185.773 199.213L184.855 202.398C184.088 205.075 183.993 205.844 184.194 207.541C184.508 209.76 185.415 211.124 186.479 210.835C188.496 210.291 189.594 206.502 188.98 202.242L188.625 199.594L190.057 197.961C192.534 195.199 196.325 193.34 199.849 193.167C201.386 193.097 204.353 194 206.098 195.038ZM207.607 217.06C207.446 217.599 205.093 218.593 203.467 218.844C200.785 219.248 198.698 217.997 200.264 216.929C201.831 215.86 207.939 215.948 207.607 217.06ZM195.824 229.981C195.845 231.378 194.727 231.511 194.116 230.171C193.666 229.195 194.105 228.743 195.09 229.054C195.552 229.2 195.825 229.53 195.824 229.981ZM167.544 222.539C167.411 222.983 166.577 223.519 166.207 223.402C165.9 223.305 166.191 222.215 166.585 222.027C167.037 221.753 167.677 222.094 167.544 222.539Z" fill="#EBA900"/>
<path d="M129.354 172.013C127.599 172.845 126.495 174.299 125.325 177.43C123.302 182.858 123.464 188.698 125.742 193.509C126.875 195.877 126.999 196.021 127.765 195.812C128.198 195.706 129.41 195.569 130.392 195.533C134.622 195.379 141.04 192.381 143.882 189.257C144.723 188.344 145.575 186.95 145.989 185.902C146.662 184.208 146.679 184.04 146.046 182.8C145.412 181.559 145.269 181.479 143.753 181.174C142.168 180.881 138.945 181.249 136.691 181.958L135.514 182.314L135.532 179.789C135.551 173.902 132.814 170.402 129.354 172.013ZM131.502 175.465C132.186 176.201 132.495 178.413 132.183 180.915C131.737 184.76 131.785 185.608 132.415 186.188C133.178 186.88 133.946 186.776 136.645 185.584C138.652 184.692 141.918 183.956 142.744 184.217C143.508 184.459 142.821 185.975 141.272 187.462C138.691 189.939 135.16 191.562 130.086 192.524C127.1 193.106 127.234 193.218 126.647 189.808C125.849 185.084 127.615 177.495 129.963 175.464C130.769 174.783 130.809 174.76 131.502 175.465Z" fill="#EBA900"/>
<path d="M112.711 168.906C111.543 169.544 110.607 171.436 109.905 174.687L109.357 177.084L108.096 176.686C103.757 175.314 100.605 177.409 101.64 180.932C102.116 182.61 103.971 184.967 105.791 186.202C107.497 187.367 110.657 188.4 112.92 188.49C115.011 188.595 115.688 187.906 116.906 184.506C118.547 179.919 118.767 174.223 117.43 171.37C116.361 169.087 114.321 168.026 112.711 168.906ZM115.36 175.369C115.716 177.67 115.683 178.007 114.573 182.171L113.388 186.589L112.438 186.497C110.417 186.275 105.962 182.922 105.052 180.898C104.463 179.601 105.145 179.573 108.033 180.729C110.355 181.636 110.826 181.75 111.501 181.408C112.448 180.943 112.782 179.938 112.906 177.268C112.954 176.207 113.213 174.552 113.488 173.632C113.962 172.045 114.021 171.96 114.48 172.452C114.771 172.718 115.147 174.052 115.36 175.369Z" fill="#EBA900"/>
<path d="M92.8424 170.574C92.4737 170.912 91.3121 172.224 90.2307 173.492C86.2531 178.181 80.6514 182.707 73.4658 187.047C69.5568 189.38 68.7506 190.174 69.8511 190.522C70.6154 190.764 75.4721 188.731 78.4583 186.911C81.1541 185.279 86.175 181.13 88.5096 178.579C91.5798 175.247 94.6116 170.364 93.7556 170.093C93.6028 170.045 93.2016 170.268 92.8424 170.574Z" fill="#EBA900"/>
<path d="M90.3368 194.272C88.7246 194.567 87.4616 195.359 85.6678 197.302C83.3769 199.765 83.2869 199.962 83.7385 200.844C84.2096 201.766 84.8503 201.807 86.9814 201.129C88.8127 200.517 90.5356 199.227 91.7036 197.504C93.3471 195.127 92.7933 193.858 90.3368 194.272Z" fill="#EBA900"/>
<path d="M119.056 207.442C115.586 207.913 113.39 210.786 115.11 212.564C115.981 213.473 117.587 213.447 119.987 212.405C122.319 211.374 123.35 210.433 123.536 209.158C123.637 208.49 123.477 208.372 122.043 207.819C120.949 207.44 119.979 207.3 119.056 207.442Z" fill="#EBA900"/>
<path d="M127.925 211.63C126.825 211.933 122.692 215.941 121.979 217.378C119.789 221.856 124.989 222.089 128.797 217.689C129.195 217.201 129.819 216.169 130.181 215.379C130.681 214.236 130.752 213.788 130.487 213.09C130.081 211.913 129.055 211.336 127.925 211.63Z" fill="#EBA900"/>
<path d="M56.9131 191.068C55.2319 191.428 54.0986 191.85 53.9972 192.19C53.7841 192.903 54.3795 193.017 56.898 192.698C59.2914 192.377 60.6005 191.787 60.4854 191.119C60.3416 190.442 59.8511 190.399 56.9131 191.068Z" fill="#EBA900"/>
<path d="M102.642 206.347C99.1597 208.309 93.9814 213.244 93.9842 214.586C94.0145 216.626 96.1713 216.619 99.8565 214.653C103.872 212.482 106.222 209.577 105.999 207.168C105.823 205.392 104.779 205.165 102.642 206.347Z" fill="#EBA900"/>
</svg>
