<svg width="75" height="20" viewBox="0 0 75 20" fill="none" xmlns="http://www.w3.org/2000/svg">
<path fill-rule="evenodd" clip-rule="evenodd" d="M71.9093 2.80463C70.5383 4.86461 66.1244 8.32985 62.1452 10.3419C56.3603 13.2642 46.7633 13.2483 37.601 10.2781C32.3679 8.58536 32.9865 8.85683 29.2413 7.80288C20.4302 5.32771 10.0307 7.24397 3.97824 12.5616C-0.987363 16.9371 -0.602798 19.8913 1.35329 17.6716C5.38268 13.0726 9.56254 11.9867 18.6245 13.0886C25.0782 13.8711 44.3891 24.7459 59.8045 17.4321C64.5026 15.2124 67.2446 12.8171 71.1737 7.4835C72.5447 5.61515 74.5844 1.39936 74.2668 1.06401C73.3472 0.0739436 71.926 2.78866 71.9093 2.80463ZM32.9196 10.6932C36.7316 11.4917 52.3309 18.1667 66.5257 10.2302C66.5424 10.2142 56.4438 25.704 25.0949 13.5197C16.9358 10.3579 11.4017 10.6613 11.2679 10.6453L12.3212 10.1822C19.4103 7.00444 26.1148 9.25605 32.9196 10.6932Z" fill="black"/>
</svg>
