<svg width="63" height="61" viewBox="0 0 63 61" fill="none" xmlns="http://www.w3.org/2000/svg">
<path d="M29.6608 22.1696C32.5288 17.2021 35.1612 10.5662 31.6924 5.18367C27.9773 -0.587924 19.6093 -0.302712 14.0669 2.19276C1.30979 7.92943 -0.425501 24.15 1.64772 36.3546C2.92364 43.8594 5.94111 51.3139 4.39597 59.0033C4.18731 60.0321 7.06538 60.7573 7.25834 59.7705C8.51231 53.505 6.83438 47.275 5.43082 41.1779C4.02726 35.0808 3.34094 29.0318 4.10054 22.881C4.86013 16.7303 6.98407 10.8564 11.5396 6.71847C13.7975 4.67637 16.5816 3.17642 19.5607 2.49564C22.1226 1.91453 25.1833 1.77464 27.3963 3.44398C30.0295 5.42394 30.7563 9.04459 30.3526 12.1317C29.9489 15.2188 28.5863 18.3057 27.0049 21.0448C26.4151 22.0664 29.1963 22.9741 29.6608 22.1696Z" fill="url(#paint0_linear_21_36)"/>
<path d="M29.6717 22.3288C34.9048 19.2716 41.2419 18.0693 47.2657 18.8485C50.1739 19.2249 53.037 20.0947 55.5792 21.5795C56.215 21.9466 56.8351 22.3557 57.4203 22.7957C57.9128 23.1737 58.8431 23.7278 59.1497 24.2794C59.4563 24.831 59.5177 25.837 59.5697 26.4885C59.6371 27.2766 59.5786 28.0601 59.4017 28.8263C58.7339 31.7183 56.3996 33.8185 53.948 35.3061C51.2766 36.9222 48.3224 38.0345 45.3803 39.0517C41.8629 40.2645 38.2797 41.2945 34.776 42.5578C31.2722 43.821 27.6083 45.2727 24.0958 46.8033C16.407 50.1539 8.98439 54.0668 1.86485 58.4781C0.719031 59.1872 3.34916 60.3567 4.14737 59.864C10.8439 55.7107 17.817 51.9981 25.0233 48.7861C28.7694 47.1179 32.5777 45.5793 36.428 44.1756C40.2782 42.7719 44.0195 41.7054 47.7879 40.3991C50.9367 39.3055 54.1216 38.1051 56.9156 36.2618C59.4024 34.6242 61.7177 32.3939 62.3206 29.3622C62.6082 27.8852 62.6186 25.8055 61.9251 24.426C61.6131 23.7947 60.8894 23.2832 60.3511 22.8362C59.6863 22.2821 58.9892 21.769 58.2664 21.3006C55.4529 19.4549 52.2332 18.2685 48.9526 17.6174C41.7324 16.1816 33.7716 17.2298 27.402 20.9503C26.2517 21.6228 28.8707 22.8114 29.6845 22.3362L29.6717 22.3288Z" fill="url(#paint1_linear_21_36)"/>
<defs>
<linearGradient id="paint0_linear_21_36" x1="15.1673" y1="4.37458" x2="48.5125" y2="55.1046" gradientUnits="userSpaceOnUse">
<stop stop-color="#FF6C31"/>
<stop offset="1" stop-color="#FDB64B"/>
</linearGradient>
<linearGradient id="paint1_linear_21_36" x1="15.1673" y1="4.37458" x2="48.5125" y2="55.1046" gradientUnits="userSpaceOnUse">
<stop stop-color="#FF6C31"/>
<stop offset="1" stop-color="#FDB64B"/>
</linearGradient>
</defs>
</svg>
