<svg width="120" height="52" viewBox="0 0 120 52" fill="none" xmlns="http://www.w3.org/2000/svg">
<path fill-rule="evenodd" clip-rule="evenodd" d="M0.664072 20.0669L1.51444 16.8933C3.53337 16.7554 5.42504 17.1794 7.14551 17.6672C7.709 17.8269 8.24452 17.9897 8.763 18.1472C10.069 18.5441 11.2669 18.9081 12.5312 19.1088C13.2124 19.217 13.9958 19.0634 14.9569 18.6945C16.3602 18.1558 17.6951 17.449 19.0951 16.8974C18.4118 13.9763 18.8037 7.96408 20.962 5.15709C22.0301 3.76807 23.4089 2.63808 24.6081 1.68662C27.1632 -0.340459 30.7483 -0.720492 33.5061 1.61441C34.7027 2.6275 35.3033 3.78746 35.2015 5.16306C35.1253 6.19386 34.6323 7.2278 34.232 8.0674C34.1968 8.14122 34.1623 8.21358 34.1289 8.28427C32.2954 12.1622 29.1148 15.0926 25.6929 17.2428C24.8622 17.7648 23.9562 18.2104 23.0447 18.6087C23.7185 19.6898 24.903 20.7863 26.3551 21.8202C27.8529 22.8866 29.5108 23.8 30.8839 24.4913C32.4831 25.2966 34.2078 25.9938 35.685 26.037C36.3872 26.0575 37.1639 25.8076 38.1093 25.3389C38.5484 25.1212 38.9838 24.8776 39.4503 24.6167L39.5374 24.5679C39.7851 24.4294 40.0433 24.2855 40.3068 24.1449C40.192 23.9591 40.081 23.7714 39.974 23.5824C38.9426 21.761 38.1658 19.6081 38.2159 17.6307C38.2627 15.7842 38.8944 13.7366 39.8537 11.9554C40.8086 10.1825 42.1843 8.49604 43.8696 7.52304C47.2189 5.58936 50.8205 7.34788 52.909 9.30041C54.4407 10.7323 54.8826 12.5199 54.7281 14.2221C54.5794 15.8607 53.8852 17.4394 53.1357 18.7138C51.6989 21.1567 48.3714 23.1235 45.7486 24.6736C45.4876 24.8279 45.2335 24.9781 44.989 25.1241C45.2288 25.3474 45.4668 25.5446 45.6986 25.7113C47.0988 26.7184 48.7899 27.7837 50.5433 28.5821C52.3143 29.3884 54.0388 29.8714 55.5387 29.8364C56.9653 29.8031 58.3881 29.6935 59.7066 29.4134C59.3608 27.2974 59.4755 24.9967 59.9582 22.8715C60.781 19.2486 62.8047 15.5855 66.1826 14.0692C67.5008 13.4775 69.0566 13.3521 70.4436 13.7891C71.8712 14.2388 73.1373 15.301 73.6472 17.0105C74.2022 18.8714 73.6225 20.7522 72.858 22.2261C72.0762 23.7335 70.9681 25.077 70.0442 26.0132C69.882 26.1775 69.7182 26.3447 69.5525 26.514C67.8647 28.2374 65.9724 30.1695 63.4779 31.3678C63.568 31.5501 63.6646 31.7238 63.7675 31.8882C65.6598 34.9112 69.1571 36.8311 72.8275 37.6801C75.6769 38.3393 78.4823 38.0407 81.224 37.1423C79.509 31.2987 84.0148 20.7176 91.7285 21.0142C93.346 21.0763 94.7625 21.8842 95.9284 23.3428C97.0849 24.7896 97.4579 26.3619 97.1925 27.9134C96.9397 29.3917 96.1328 30.712 95.2018 31.8171C93.3465 34.0191 90.6023 35.8223 88.8836 36.865C87.7318 37.5638 86.5308 38.225 85.2865 38.8081C86.5071 40.8065 88.4226 42.5167 90.89 43.6099C93.7149 44.8615 96.8233 44.6162 100.007 43.531C100.414 43.3925 100.818 43.2413 101.221 43.079C101.108 42.711 101.014 42.3267 100.941 41.9248C100.395 38.9352 101.698 34.5911 102.837 31.6237C103.271 30.4925 103.914 29.3071 105.006 28.3721C106.857 26.7873 109.238 26.3509 111.44 26.5134C113.645 26.6761 115.84 27.4454 117.541 28.4958C118.314 28.9728 118.904 29.631 119.178 30.4798C119.446 31.3095 119.35 32.1321 119.119 32.8408C118.675 34.1981 117.609 35.5139 116.543 36.6029C114.358 38.8361 111.457 40.8199 110.678 41.3364C109.111 42.3754 107.331 43.4984 105.42 44.4974C106.568 45.8669 108.291 46.9347 110.448 48.0442C111.584 48.6288 113.062 48.8722 114.767 48.8952C116.421 48.9175 118.142 48.734 119.784 48.5558L118.935 51.7239C117.607 51.8584 116.155 51.9751 114.726 51.9558C112.818 51.93 110.793 51.6639 109.048 50.766C106.648 49.5314 104.191 48.0834 102.581 45.8297C102.058 46.0455 101.529 46.2462 100.995 46.4282C97.4038 47.6521 93.4374 48.0864 89.6501 46.4084C86.4724 45.0005 83.9634 42.7141 82.4195 39.9699C79.1994 41.0628 75.7427 41.4962 72.1376 40.6622C67.999 39.7049 63.6434 37.4588 61.173 33.5123C60.9447 33.1475 60.7414 32.7618 60.5622 32.3589C58.8766 32.7405 57.1559 32.8604 55.6101 32.8964C53.4591 32.9466 51.2503 32.2672 49.275 31.3678C47.2822 30.4605 45.414 29.277 43.9114 28.1962C43.3152 27.7674 42.7284 27.2324 42.1722 26.6261C41.8186 26.8013 41.4459 27.0076 41.0313 27.2395L40.93 27.2962L40.9296 27.2964C40.4776 27.5493 39.9792 27.8282 39.4689 28.0812C38.3839 28.6191 37.0582 29.1393 35.5955 29.0965C33.39 29.032 31.1412 28.0478 29.5074 27.2252C28.0665 26.4997 26.2557 25.5068 24.5798 24.3136C22.9292 23.1384 21.2791 21.6786 20.2988 19.9807C20.2573 19.9088 20.2167 19.8364 20.177 19.7637C17.5938 20.7757 14.9155 22.5865 12.0514 22.1319C10.5622 21.8955 9.06001 21.4388 7.68635 21.0212C7.2104 20.8765 6.74981 20.7365 6.31061 20.6119C4.5144 20.1027 2.90119 19.7869 1.2818 19.9896L0.664072 20.0669ZM24.0644 14.6511C23.4026 15.0669 22.7078 15.4149 21.9798 15.7363C21.6218 13.783 21.8669 9.00178 23.3885 7.02284C24.2015 5.96548 25.3042 5.04151 26.5105 4.0845C28.1349 2.7958 30.0784 2.72287 31.5283 3.95045C32.1793 4.50165 32.161 4.77522 32.149 4.93723C32.1182 5.35337 31.8846 5.8699 31.3617 6.97595C29.8577 10.1569 27.1792 12.6939 24.0644 14.6511ZM108.986 38.7855C107.451 39.8034 105.781 40.8524 104.035 41.7676C104.004 41.6393 103.976 41.5085 103.952 41.3751C103.514 38.9739 104.774 35.1191 105.695 32.7203C106.029 31.8495 106.434 31.1785 106.996 30.6975C108.042 29.8022 109.526 29.4413 111.215 29.566C112.902 29.6904 114.626 30.2928 115.933 31.1001C116.219 31.2769 116.259 31.3988 116.265 31.4198L116.265 31.4203C116.278 31.4589 116.306 31.5922 116.209 31.8893C115.995 32.5438 115.356 33.4398 114.356 34.4622C112.409 36.4517 109.735 38.2886 108.986 38.7855ZM87.2959 34.2482C86.2366 34.8909 85.1646 35.4801 84.0812 35.9926C83.6038 34.1674 88.5176 18.9739 93.5376 25.254C94.1704 26.0457 94.2877 26.7414 94.1755 27.3974C94.0507 28.1267 93.6121 28.9534 92.861 29.8448C91.3521 31.6358 88.9853 33.2232 87.2959 34.2482ZM67.4172 24.3187C65.8078 25.9561 64.398 27.3903 62.6493 28.3528C62.479 26.8613 62.569 25.1961 62.943 23.5494C63.6648 20.3713 65.3118 17.8152 67.436 16.8617C68.1148 16.557 68.8979 16.5113 69.524 16.7085C70.1095 16.8929 70.5305 17.2701 70.714 17.8854C70.9361 18.6302 70.7567 19.6296 70.1409 20.8168C69.5424 21.9706 68.6491 23.0693 67.8657 23.8631C67.7142 24.0165 67.5649 24.1684 67.4172 24.3187ZM43.7467 22.3146C43.4918 22.4602 43.2513 22.5977 43.03 22.7261C42.8945 22.5141 42.7633 22.2964 42.6375 22.0742C41.7455 20.4989 41.2453 18.9106 41.2758 17.7083C41.3078 16.4454 41.7623 14.8667 42.5486 13.4068C43.3393 11.9386 44.3687 10.7692 45.4001 10.1738C46.9766 9.26361 49.0839 9.91451 50.8187 11.5363C51.5381 12.2089 51.7653 13.0031 51.6798 13.9455C51.5885 14.9515 51.1335 16.0804 50.4973 17.1621C49.3511 19.111 45.9927 21.0307 43.7467 22.3146Z" fill="url(#paint0_linear_21_38)"/>
<defs>
<linearGradient id="paint0_linear_21_38" x1="28.8979" y1="2.63551" x2="25.3021" y2="37.0605" gradientUnits="userSpaceOnUse">
<stop stop-color="#AB2AE8"/>
<stop offset="1" stop-color="#FD6B4B"/>
</linearGradient>
</defs>
</svg>
