<svg width="80" height="20" viewBox="0 0 80 20" fill="none" xmlns="http://www.w3.org/2000/svg">
<path d="M70.7449 0.468612C68.7365 0.394739 67.1662 1.80351 62.0759 8.23666C55.5336 16.5313 54.1767 17.793 52.589 17.1137C51.5404 16.6665 51.031 15.8742 48.0696 10.3282C43.2603 1.37545 41.2284 -0.328127 37.7918 1.74243C37.0926 2.14975 34.7579 4.39023 32.6009 6.7326C27.5048 12.2773 25.3005 14.2462 24.56 13.8217C24.2638 13.6519 22.6408 11.49 20.9349 9.01126C17.15 3.49346 15.5091 2.12947 13.234 2.47996C11.4921 2.75131 10.3662 3.64521 5.10421 9.13333C0.399206 14.0557 -0.347468 15.0515 0.481936 15.3345C1.11584 15.544 2.60312 14.3955 7.94206 9.49026C10.099 7.53269 12.2618 5.69394 12.7832 5.37714C13.6305 4.86233 13.8142 4.89065 14.8686 5.64907C15.5262 6.14148 17.3506 8.49577 19.0683 11.0198C22.4623 16.0056 23.5345 16.9282 25.4127 16.5041C26.8347 16.1647 29.1337 14.3656 31.7292 11.582C39.1778 3.57606 39.6104 3.20831 40.6175 3.78565C41.595 4.34601 43.8576 7.79816 46.5466 12.8801C49.887 19.1051 51.4035 20.4748 54.2712 19.6943C56.1731 19.1683 57.9922 17.3635 63.3848 10.6418C66.0218 7.34319 68.641 4.26527 69.2514 3.80701C71.3727 2.09841 72.3915 3.4906 75.4294 12.1206C77.8751 19.0642 78.5088 20.2356 79.2022 19.1323C79.6111 18.4816 77.4086 9.86871 75.9043 6.2356C74.0744 1.83852 72.937 0.570803 70.7449 0.468612Z" fill="url(#paint0_linear_23_7783)"/>
<defs>
<linearGradient id="paint0_linear_23_7783" x1="15.5799" y1="20.3961" x2="60.0901" y2="-10.1282" gradientUnits="userSpaceOnUse">
<stop stop-color="#FF6C31"/>
<stop offset="1" stop-color="#FDB64B"/>
</linearGradient>
</defs>
</svg>
