<svg width="20" height="20" viewBox="0 0 20 20" fill="none" xmlns="http://www.w3.org/2000/svg">
<g clip-path="url(#clip0_10_21)">
<path d="M3.33334 18.3333H16.6667C17.5833 18.3333 18.3333 17.5833 18.3333 16.6666V5.83328H14.925C14.5263 3.47244 12.4725 1.66661 10 1.66661C7.52751 1.66661 5.47376 3.47244 5.07542 5.83328H1.66667V16.6666C1.66667 17.5833 2.41667 18.3333 3.33334 18.3333ZM10 3.33328C11.5496 3.33328 12.8521 4.39786 13.2238 5.83328H6.77626C7.14792 4.39786 8.45042 3.33328 10 3.33328ZM5.00001 7.49994V9.16661H6.66667V7.49994H13.3333V9.16661H15V7.49994H16.6667V16.6666H3.33334V7.49994H5.00001Z" fill="#34312E"/>
</g>
<defs>
<clipPath id="clip0_10_21">
<rect width="20" height="20" fill="white"/>
</clipPath>
</defs>
</svg>
