<svg width="19" height="19" viewBox="0 0 19 19" fill="none" xmlns="http://www.w3.org/2000/svg">
<path d="M14.7071 11.7072L17.3552 14.3553C17.7113 14.7114 17.7113 15.2888 17.3552 15.6449C15.43 17.5701 12.3821 17.7867 10.2039 16.1531L8.62852 14.9715C6.88499 13.6639 5.33616 12.1151 4.02852 10.3715L2.84695 8.79612C1.21335 6.61799 1.42996 3.5701 3.35518 1.64488C3.71127 1.28878 4.28862 1.28878 4.64471 1.64488L7.29284 4.293C7.68336 4.68353 7.68336 5.31669 7.29284 5.70722L6.27169 6.72837C6.10941 6.89065 6.06917 7.13857 6.17181 7.34384C7.35847 9.71717 9.28289 11.6416 11.6562 12.8282C11.8615 12.9309 12.1094 12.8906 12.2717 12.7284L13.2928 11.7072C13.6834 11.3167 14.3165 11.3167 14.7071 11.7072Z" stroke="white" stroke-width="2"/>
</svg>
