<svg width="133" height="224" viewBox="0 0 133 224" fill="none" xmlns="http://www.w3.org/2000/svg">
<path d="M120.414 1.76645C115.586 4.33589 110.801 7.65845 108.01 10.3608C105.884 12.3986 105.618 12.8859 105.751 14.1707C105.928 16.2971 107.257 16.873 111.554 16.6515C114.345 16.5186 114.965 16.6072 114.965 17.1388C114.965 18.1134 111.377 25.5117 109.472 28.5241C105.042 35.3907 96.8463 41.5928 92.1504 41.5928C90.7328 41.5928 90.7771 41.4156 92.3719 38.226C95.4287 32.0682 95.5616 27.771 92.7263 25.4231C91.5302 24.4041 90.9986 24.2712 89.2709 24.4041C86.7457 24.6699 83.9991 26.442 82.3599 28.8785C81.3853 30.3404 81.0752 31.4037 80.9423 33.7073C80.7208 37.3843 81.3853 39.4664 83.5561 41.8143L85.2838 43.675L82.2713 46.5545C80.4993 48.1936 77.3097 50.4973 74.6516 52.0478C70.1772 54.573 69.114 55.6805 71.3734 55.4147C74.6516 54.9717 82.7586 50.1872 86.1698 46.7317L88.119 44.6939H91.353C95.2958 44.6939 97.9538 43.7636 101.764 41.0169C107.301 37.0742 111.333 31.9796 115.408 23.8725C116.693 21.3031 117.801 19.1324 117.933 18.9994C118.022 18.9108 118.598 19.3982 119.174 20.1513C122.364 24.2269 128.477 23.4295 130.072 18.6893C131.667 13.8163 129.097 2.03225 126.085 0.393124C124.711 -0.315689 124.136 -0.182785 120.414 1.76645ZM126.882 7.21544C128.167 11.424 128.167 17.0945 126.882 18.7336C125.908 19.9741 124.047 20.2842 122.496 19.4425C122.053 19.221 120.857 17.7147 119.883 16.1199C118.864 14.5251 117.712 13.0631 117.358 12.9302C116.782 12.7087 113.636 13.196 110.978 13.9049C110.624 14.0378 110.004 13.9049 109.649 13.6834C109.118 13.3289 109.251 13.0188 110.535 11.6898C112.529 9.65199 119.085 5.1333 122.142 3.71568C124.357 2.69677 124.534 2.65246 125.243 3.40557C125.642 3.80428 126.395 5.53201 126.882 7.21544ZM90.6442 27.8596C91.7517 28.4798 91.7517 30.9164 90.6442 34.1503C89.7139 36.8084 87.7203 40.2638 87.1001 40.2638C86.8786 40.2638 86.2141 39.6879 85.5939 38.9791C82.8472 35.7008 84.0877 30.1189 88.0304 28.1697C89.8025 27.2837 89.581 27.328 90.6442 27.8596Z" fill="#FDB64B"/>
<path d="M42.4006 21.7018C41.5589 21.879 40.1856 22.6764 39.3439 23.4739C37.749 25.0244 35.6669 28.79 35.6669 30.1633C35.6669 31.1379 35.7555 31.1379 33.2304 30.0304C30.1293 28.657 25.7878 28.9672 24.3259 30.6949C22.3767 32.9099 23.0855 36.7198 25.965 40.0423L27.4713 41.7258L26.3637 42.4346C21.8894 45.3141 19.0098 50.1429 19.4085 54.13C19.5414 55.9463 19.8958 56.6108 21.0033 57.6297C22.7754 59.2246 24.8575 59.2689 28.8446 57.7626C30.4394 57.1424 31.9456 56.6551 32.1228 56.6551C32.3 56.6551 32.6545 57.9842 32.9203 59.579C33.4962 63.123 35.1353 65.7811 37.2617 66.6671C41.7804 68.572 46.7421 63.0787 46.7421 56.1235V53.9971H49.0014C52.4569 53.9971 54.7162 53.1554 56.9756 50.896C60.0323 47.9722 60.7411 44.7382 59.1463 41.5929C58.0831 39.5107 55.5136 37.9159 51.9253 37.1185C49.6216 36.6312 49.3558 36.454 49.6659 35.6566C49.7988 35.125 50.0647 33.0871 50.1533 31.1379C50.3305 28.1697 50.1976 27.1508 49.4887 25.5117C48.1597 22.5435 45.3688 21.0373 42.4006 21.7018ZM44.7486 25.0244C46.8307 25.8661 47.5395 31.2265 46.0776 35.3022C44.9258 38.4918 45.3245 39.0234 49.4444 39.6879C53.4315 40.3525 54.7605 40.8841 56.0896 42.3017C57.2414 43.4978 57.33 45.3141 56.3111 47.2634C55.425 49.0354 53.6087 50.2758 51.0836 50.896C49.3115 51.339 48.8242 51.2947 46.8307 50.453C43.6853 49.0797 42.9765 49.4341 43.4638 52.1365C44.3499 57.231 43.5081 61.2181 41.0716 63.4331C39.8312 64.585 37.9705 64.2306 36.8187 62.7243C36.0656 61.7054 35.8441 60.6865 35.7555 57.2753C35.534 51.8706 35.3125 51.6934 30.4394 53.8199C24.5474 56.345 22.3767 56.3007 22.3767 53.5984C22.3767 51.782 24.4588 47.9722 26.2751 46.466C27.2055 45.7128 29.0218 44.7825 30.3508 44.3838C31.6798 44.0294 32.9203 43.4535 33.0975 43.1877C33.4962 42.5675 32.2114 41.1499 31.2368 41.1499C30.1293 41.1499 27.0283 37.6058 26.408 35.7009C25.5663 33.1314 26.0536 32.2897 28.4016 32.2897C30.5723 32.2897 32.3443 33.0428 34.8252 34.9921C37.6161 37.2071 38.5022 36.6312 38.9009 32.3783C39.2553 29.1444 40.0084 27.5052 41.869 25.9104C43.3752 24.67 43.5967 24.6257 44.7486 25.0244Z" fill="#FDB64B"/>
<path d="M37.7047 41.8587C36.863 42.6561 36.8187 43.0991 37.4389 44.2952C38.0591 45.447 39.9197 45.4027 40.54 44.2066C40.9387 43.4978 40.8944 43.0548 40.3185 42.2131C39.521 40.9727 38.6793 40.8398 37.7047 41.8587Z" fill="#FDB64B"/>
<path d="M81.0751 60.8194C80.7207 62.68 80.9422 71.5401 81.3852 71.9388C81.5624 72.116 81.8725 72.116 82.1384 71.9388C82.67 71.6287 82.8472 61.2624 82.3599 60.0219C81.9169 58.8701 81.3409 59.2245 81.0751 60.8194Z" fill="#FDB64B"/>
<path d="M106.061 68.4833C104.244 70.3882 100.789 75.8372 100.789 76.6789C100.789 78.6282 102.605 76.6789 105.928 71.1413C107.789 68.1289 107.833 66.5341 106.061 68.4833Z" fill="#FDB64B"/>
<path d="M56.0453 75.793C56.0453 76.7676 64.7282 85.0075 65.7472 85.0075C67.1648 85.0075 66.5003 84.0772 61.6715 79.337C57.8173 75.5715 56.0453 74.464 56.0453 75.793Z" fill="#FDB64B"/>
<path d="M9.75092 77.2106C7.00427 78.451 5.54235 81.1977 5.54235 85.2291C5.54235 87.4884 5.49805 87.577 4.12472 87.8428C2.17549 88.2415 0.713563 89.2604 0.181954 90.5894C-0.792663 93.2475 3.85892 99.2281 8.6434 101.487C12.2761 103.215 16.1745 103.835 18.1681 102.994C20.6932 101.93 21.2691 100.114 21.2691 92.9817C21.2691 87.1783 21.2248 86.9125 19.8958 84.1215C17.2377 78.6282 13.0735 75.793 9.75092 77.2106ZM14.0481 80.356C17.0605 82.3938 19.2756 87.5327 19.2756 92.583C19.2756 96.3485 18.5225 99.7154 17.3707 100.867C16.396 101.842 16.3074 101.842 13.738 101.177C12.2761 100.779 10.2825 99.9812 9.30791 99.4053C7.22578 98.2092 3.59311 94.4436 2.7957 92.7159C2.30839 91.697 2.35269 91.4755 3.1058 90.9439C3.54881 90.5894 4.56773 90.3236 5.27654 90.3236C6.42836 90.3236 6.87137 90.678 7.93459 92.3172C9.13071 94.2664 11.8331 96.7916 13.8266 97.8105C16.1302 99.0066 17.9466 97.8991 17.9466 95.3739C17.9466 94.1335 17.5479 93.4247 15.8644 91.7413C14.5797 90.4565 12.852 89.3047 11.523 88.8174C8.20039 87.577 8.06749 87.4441 8.28899 84.2544C8.4219 82.128 8.6877 81.242 9.52942 80.356C10.8584 78.9383 12.0103 78.9383 14.0481 80.356ZM13.6937 93.1589C15.6429 94.9752 15.8644 96.127 14.0924 94.9752C12.4533 93.9563 10.8584 92.4944 10.8584 92.0071C10.8584 91.2097 12.2318 91.7413 13.6937 93.1589Z" fill="#FDB64B"/>
<path d="M85.6382 84.1216C82.6257 87.3112 78.4171 92.4944 76.3793 95.6398L75.6705 96.703L67.0762 95.2854C56.6212 93.5576 50.9507 93.1146 49.4001 93.9563C48.0268 94.6652 47.7167 96.6144 48.7356 98.1206C49.6216 99.4939 55.1149 103.835 60.2538 107.291C62.4246 108.753 64.4181 110.082 64.6396 110.303C64.8611 110.481 63.7536 112.075 62.1588 113.892C56.1782 120.625 52.0582 126.695 52.0582 128.777C52.0582 129.22 52.2797 129.796 52.5898 130.106C53.8745 131.39 56.8427 130.504 68.2723 125.543C72.4365 123.726 76.1578 122.22 76.6008 122.22C76.9995 122.22 78.2842 123.239 79.4361 124.524C85.9926 131.701 92.8592 137.548 95.2957 137.991C98.7069 138.612 98.8398 136.928 96.3147 127.005C94.2325 118.942 94.1439 119.474 98.3082 118.012C101.454 116.904 106.858 114.157 109.118 112.518C110.535 111.455 110.978 110.835 110.978 109.86C110.978 108.088 109.871 107.468 103.358 105.607C93.2136 102.639 92.5048 102.373 91.9732 101.044C91.6631 100.291 91.5302 96.6587 91.5745 90.8553C91.7074 82.3938 91.6631 81.8179 90.8657 81.1977C90.3784 80.8433 89.7581 80.5775 89.5366 80.5775C89.2708 80.5775 87.4988 82.1723 85.6382 84.1216ZM89.2708 93.3804V102.196L90.4227 103.57C91.5745 104.987 93.8338 105.785 103.846 108.576C105.928 109.152 107.656 109.816 107.744 110.082C107.833 110.348 105.574 111.721 102.694 113.094C99.8144 114.512 96.359 116.195 95.0299 116.816C91.7517 118.455 91.6188 119.208 93.3465 125.72C95.4286 133.694 95.6501 134.624 95.34 134.89C94.8084 135.422 92.7263 133.694 86.1255 127.271C82.5371 123.815 79.0817 120.625 78.4614 120.182C76.778 119.119 75.4047 119.474 66.3673 123.283C58.3046 126.65 56.0453 127.448 56.0453 126.872C56.0453 126.119 59.5893 121.334 63.6207 116.683C66.5002 113.36 68.0065 111.278 68.0065 110.569C68.0065 109.284 66.8103 108.177 60.6968 103.924C58.0388 102.019 54.8491 99.6268 53.6087 98.5193L51.3937 96.5701L53.7416 96.5258C55.0263 96.5258 60.3867 97.2346 65.6142 98.1206C70.8417 99.0066 75.4047 99.5825 75.7591 99.4496C76.0692 99.361 79.126 95.9499 82.4928 91.9185C85.8597 87.8428 88.7392 84.5646 88.9164 84.5646C89.1379 84.5646 89.2708 88.5516 89.2708 93.3804Z" fill="#FDB64B"/>
<path d="M112.75 89.482C106.415 93.0261 105.574 93.6906 106.681 94.1336C107.744 94.5323 119.838 87.7543 119.838 86.7797C119.838 85.805 118.066 86.5138 112.75 89.482Z" fill="#FDB64B"/>
<path d="M29.7306 89.1275C29.9964 89.8806 38.5908 93.4247 40.0084 93.4247C42.1348 93.4247 40.6286 92.2728 36.0656 90.4565C31.2811 88.5073 29.3319 88.1086 29.7306 89.1275Z" fill="#FDB64B"/>
<path d="M43.198 112.651C38.3249 114.512 36.863 115.221 36.6415 115.885C36.5529 116.24 36.8187 116.461 37.306 116.461C38.5907 116.417 48.204 112.297 48.4255 111.677C48.6913 110.835 47.2294 111.056 43.198 112.651Z" fill="#FDB64B"/>
<path d="M116.649 112.341C116.206 112.43 115.851 112.696 115.851 112.917C115.851 113.626 118.775 114.202 123.958 114.512C128.433 114.778 129.142 114.733 129.142 114.113C129.142 113.404 127.99 113.094 123.161 112.696C121.478 112.563 119.484 112.385 118.731 112.297C118.022 112.208 117.047 112.208 116.649 112.341Z" fill="#FDB64B"/>
<path d="M2.92859 118.499C-0.128159 122.397 0.890758 134.624 5.09933 143.396C6.87136 147.073 6.87136 147.073 6.25115 149.421C5.05503 154.028 4.52342 158.547 4.74493 162.844C5.01073 167.363 5.36514 168.647 7.35867 171.616C8.28899 173.077 8.55479 174.096 8.7763 177.242C9.39651 186.456 14.2253 194.076 21.8007 197.842C25.1676 199.525 25.2119 199.569 25.6992 202.98C26.408 208.341 28.8888 212.992 33.0531 216.758C37.9705 221.188 43.5524 223.226 50.7734 223.226C56.0895 223.226 60.6082 222.118 66.0572 219.505C70.9746 217.068 74.6072 214.366 78.3285 210.379C79.9233 208.651 81.2967 207.278 81.4296 207.278C81.5625 207.278 82.7143 207.986 84.0433 208.828C93.7895 215.296 105.928 211.885 113.459 200.544C115.896 196.911 118.997 189.823 120.193 185.172C121.034 181.938 121.034 181.893 123.56 180.476C128.743 177.552 131.578 173.299 132.11 167.717C132.508 163.198 130.736 160.585 127.369 160.673C125.597 160.718 124.047 161.692 121.743 164.262C120.193 165.901 119.794 166.167 119.44 165.635C116.427 160.85 113.415 159.477 111.421 161.958C110.535 163.065 110.447 163.597 110.624 166.742C110.845 170.774 111.997 173.653 115.01 177.596C118.155 181.76 118.243 182.292 116.914 186.545C114.522 194.253 111.067 200.19 106.902 203.955C100.39 209.847 91.8845 210.645 85.1065 205.993L83.113 204.62L84.6192 201.386C86.8785 196.468 87.6317 193.101 87.4102 188.45C87.1887 183.621 85.9925 180.52 83.3788 178.216C81.784 176.754 81.4296 176.622 79.6575 176.843C77.221 177.109 75.5376 178.615 74.1642 181.76C73.3225 183.621 73.1453 184.817 73.101 188.45C73.101 193.899 74.2085 197.709 77.0881 201.962C79.3474 205.328 79.3917 205.196 75.1832 209.448C65.2155 219.505 50.8177 223.182 40.3184 218.397C33.5404 215.252 29.3319 209.847 28.2243 202.626C27.7813 199.747 27.9142 199.525 30.8824 199.171C35.5783 198.55 41.1159 193.987 42.312 189.823C43.4638 185.703 41.7804 181.938 38.5464 181.317C34.1163 180.52 28.0914 186.323 26.1422 193.323C25.6992 194.785 25.3005 196.07 25.2562 196.114C24.9904 196.424 20.8704 194.386 19.3642 193.279C15.7758 190.532 12.6748 184.817 11.7887 179.412C11.1685 175.558 11.3457 175.204 14.4911 174.628C18.2124 173.919 20.4717 172.191 22.288 168.736C23.3955 166.61 23.7057 165.458 23.7057 163.553C23.7057 161.382 23.5285 160.939 22.1994 159.61C18.8326 156.243 14.3139 158.813 10.947 165.989C9.52941 169.09 9.44081 169.223 8.8206 168.382C7.18147 166.034 6.91566 157.572 8.24469 150.263C8.68769 147.87 8.8649 147.516 9.88381 147.25C11.7444 146.851 18.2124 142.288 20.2059 140.029C23.75 135.998 26.2751 129.353 25.7435 125.587C25.1676 121.866 22.1551 119.695 19.0984 120.891C18.3896 121.157 16.4846 122.663 14.8898 124.214C11.966 127.005 11.3014 127.315 11.3014 125.764C11.3014 124.125 8.59909 119.651 6.95996 118.499C4.83353 117.037 4.08041 117.037 2.92859 118.499ZM6.51696 123.15C6.95996 123.771 7.71308 126.074 8.15608 128.289C9.175 133.074 9.2636 133.295 10.6369 133.295C11.3457 133.295 12.1875 132.675 13.1621 131.435C13.9595 130.416 15.7315 128.422 17.1491 126.96C19.187 124.834 19.8515 124.391 20.9147 124.524C22.1108 124.657 22.1551 124.701 22.1108 127.315C22.1108 129.353 21.7564 130.682 20.6932 132.941C18.9655 136.529 16.6618 138.922 11.833 142.244L8.15608 144.769L7.31437 143.352C4.96643 139.542 3.5488 129.264 4.47912 123.416C4.78923 121.556 5.27653 121.511 6.51696 123.15ZM20.516 161.736C21.8007 163.021 20.7818 167.141 18.6554 169.268C17.2377 170.641 13.8709 172.059 12.8963 171.704C12.3204 171.483 12.3204 171.173 12.8963 169.09C14.4911 163.686 18.5668 159.787 20.516 161.736ZM129.097 164.882C129.584 166.167 128.92 170.154 127.812 172.236C127.369 173.122 126.439 174.362 125.73 174.982C124.357 176.267 120.68 178.482 119.927 178.482C119.218 178.482 115.364 172.856 114.478 170.464C113.636 168.249 113.326 164.749 113.991 164.749C114.699 164.749 116.206 166.787 117.18 169.046C118.111 171.261 119.307 172.236 120.281 171.616C120.547 171.483 121.566 170.109 122.585 168.603C123.604 167.097 124.933 165.413 125.509 164.882C126.971 163.553 128.61 163.553 129.097 164.882ZM82.1827 181.14C82.8915 181.893 83.7332 183.222 84.0433 184.153C84.7964 186.235 84.7521 192.791 83.999 195.095C83.0687 197.93 81.2081 201.962 80.8536 201.962C80.2334 201.962 77.7526 197.709 76.8666 195.139C75.8477 192.304 75.6705 186.899 76.5122 184.153C77.0881 182.115 79.0816 179.811 80.1891 179.811C80.5878 179.811 81.5182 180.431 82.1827 181.14ZM39.6539 185.083C41.2931 188.228 38.6793 192.88 33.8948 195.316C31.857 196.38 28.8002 196.911 28.4015 196.291C27.9585 195.582 29.3762 191.551 30.9267 189.292C33.7619 185.039 38.4135 182.824 39.6539 185.083Z" fill="#FDB64B"/>
<path d="M107.877 128.378C107.877 129.264 117.446 137.282 118.465 137.282C118.731 137.282 118.952 137.105 118.952 136.928C118.952 136.396 115.586 133.251 112.086 130.46C109.162 128.112 107.877 127.492 107.877 128.378Z" fill="#FDB64B"/>
<path d="M46.7422 135.378C45.3245 136.308 40.4071 140.472 40.0084 141.048C39.5654 141.624 39.5654 142.599 40.0084 142.599C40.7172 142.599 48.5142 135.909 48.5142 135.289C48.5142 134.447 48.0712 134.447 46.7422 135.378Z" fill="#FDB64B"/>
<path d="M74.12 144.238C73.9871 151.016 74.3858 153.674 75.4047 152.655C76.4236 151.592 75.9363 140.384 74.8288 140.384C74.3415 140.384 74.2086 141.27 74.12 144.238Z" fill="#FDB64B"/>
<path d="M98.3968 142.554C98.2196 142.82 99.1942 145.345 100.568 148.225C102.96 153.231 104.067 155.003 104.865 155.003C105.662 155.003 105.131 153.408 102.738 148.668C100.169 143.485 98.8841 141.713 98.3968 142.554Z" fill="#FDB64B"/>
</svg>
