<svg width="64" height="74" viewBox="0 0 64 74" fill="none" xmlns="http://www.w3.org/2000/svg">
<path d="M23.9167 27C23.3644 27 22.9167 27.4477 22.9167 28C22.9167 28.5523 23.3644 29 23.9167 29V27ZM48.0833 29C48.6356 29 49.0833 28.5523 49.0833 28C49.0833 27.4477 48.6356 27 48.0833 27V29ZM37 15.9167C37 15.3645 36.5523 14.9167 36 14.9167C35.4477 14.9167 35 15.3645 35 15.9167H37ZM35 40.0834C35 40.6357 35.4477 41.0834 36 41.0834C36.5523 41.0834 37 40.6357 37 40.0834H35ZM61.5833 28.0001C61.5833 42.1294 50.1293 53.5834 36 53.5834V55.5834C51.2339 55.5834 63.5833 43.2339 63.5833 28.0001H61.5833ZM36 53.5834C21.8707 53.5834 10.4167 42.1294 10.4167 28.0001H8.41667C8.41667 43.2339 20.7661 55.5834 36 55.5834V53.5834ZM10.4167 28.0001C10.4167 13.8708 21.8707 2.41675 36 2.41675V0.416748C20.7661 0.416748 8.41667 12.7662 8.41667 28.0001H10.4167ZM36 2.41675C50.1293 2.41675 61.5833 13.8708 61.5833 28.0001H63.5833C63.5833 12.7662 51.2339 0.416748 36 0.416748V2.41675ZM23.9167 29H48.0833V27H23.9167V29ZM35 15.9167V40.0834H37V15.9167H35ZM21 49L-5.90086e-06 72L1.47697 73.3485L22.477 50.3485L21 49Z" fill="white"/>
</svg>
