<svg width="158" height="143" viewBox="0 0 158 143" fill="none" xmlns="http://www.w3.org/2000/svg">
<path d="M13.4329 81.492L7.17371 79.8148L9.37885 71.5851L10.6886 71.9361L8.79098 79.0183L12.3842 79.9811L14.2819 72.8989L15.5917 73.2499L13.694 80.332L14.9459 80.6675L14.0731 83.9246L12.8676 83.6015L13.4329 81.492ZM22.6499 81.6882C22.5608 82.0205 22.4116 82.2993 22.2021 82.5248C22.0003 82.7523 21.7587 82.9278 21.4772 83.0511C21.2054 83.1688 20.9016 83.2364 20.5656 83.2541C20.2316 83.264 19.8908 83.2224 19.5431 83.1292L15.6137 82.0763L17.8188 73.8466L22.0612 74.9833C22.3471 75.06 22.5894 75.1911 22.7881 75.3769C22.9868 75.5626 23.1403 75.7777 23.2488 76.0221C23.3593 76.2588 23.4229 76.516 23.4395 76.7938C23.466 77.0659 23.4451 77.3295 23.3768 77.5845C23.2691 77.9863 23.0633 78.337 22.7594 78.6366C22.4653 78.9304 22.1062 79.1117 21.682 79.1802C22.1161 79.4456 22.4187 79.8 22.5898 80.2434C22.7706 80.6811 22.7907 81.1627 22.6499 81.6882ZM21.3821 81.0876C21.4277 80.9176 21.4402 80.747 21.4198 80.5759C21.4072 80.4069 21.3661 80.2509 21.2967 80.1081C21.235 79.9674 21.144 79.8436 21.0235 79.7368C20.9031 79.6299 20.7617 79.5548 20.5994 79.5113L17.8871 78.7845L17.2131 81.2998L19.8443 82.0048C20.0143 82.0504 20.181 82.0619 20.3444 82.0394C20.5099 82.0092 20.6612 81.9545 20.7983 81.8753C20.9376 81.7884 21.0578 81.6798 21.1589 81.5496C21.2622 81.4116 21.3366 81.2576 21.3821 81.0876ZM18.8157 75.3188L18.1666 77.7413L20.5544 78.3811C20.7167 78.4246 20.8718 78.4331 21.0197 78.4064C21.1754 78.3819 21.3169 78.3328 21.4443 78.2593C21.5814 78.1801 21.6967 78.0743 21.7902 77.942C21.8913 77.8118 21.9657 77.6578 22.0133 77.48C22.1086 77.1246 22.0858 76.8079 21.9449 76.53C21.8061 76.2443 21.5822 76.0601 21.2731 75.9772L18.8157 75.3188ZM29.5956 84.5928L29.2881 85.7404L23.6432 84.2278L25.8484 75.9981L31.3889 77.4827L31.0814 78.6302L26.8391 77.4935L26.2117 79.8349L29.8861 80.8194L29.5973 81.8974L25.9229 80.9129L25.2489 83.4281L29.5956 84.5928ZM38.5747 80.6381L35.8392 79.9051L33.9416 86.9872L32.6318 86.6363L34.5294 79.5541L31.7823 78.818L32.0898 77.6705L38.8822 79.4905L38.5747 80.6381ZM41.5933 80.217L42.7293 80.5214L43.7696 89.6207L42.4019 89.2542L42.132 86.7842L38.956 85.9332L37.4989 87.9404L36.1195 87.5708L41.5933 80.217ZM42.1348 85.7538L41.7607 81.8644L39.4456 85.0332L42.1348 85.7538ZM54.5367 90.2322C54.4477 90.5645 54.2984 90.8434 54.089 91.0689C53.8872 91.2964 53.6456 91.4718 53.364 91.5952C53.0923 91.7128 52.7885 91.7805 52.4524 91.7981C52.1185 91.808 51.7777 91.7664 51.4299 91.6732L47.5005 90.6204L49.7057 82.3907L53.948 83.5274C54.2339 83.604 54.4762 83.7352 54.6749 83.921C54.8736 84.1067 55.0272 84.3218 55.1356 84.5662C55.2461 84.8028 55.3097 85.0601 55.3264 85.3378C55.3529 85.61 55.332 85.8735 55.2636 86.1285C55.156 86.5304 54.9502 86.8811 54.6463 87.1806C54.3522 87.4745 53.9931 87.6557 53.5689 87.7243C54.003 87.9897 54.3056 88.3441 54.4766 88.7875C54.6575 89.2252 54.6775 89.7068 54.5367 90.2322ZM53.269 89.6317C53.3145 89.4617 53.3271 89.2911 53.3067 89.12C53.294 88.9509 53.253 88.795 53.1836 88.6522C53.1219 88.5114 53.0309 88.3876 52.9104 88.2808C52.7899 88.174 52.6486 88.0989 52.4863 88.0554L49.774 87.3286L49.1 89.8439L51.7312 90.5489C51.9012 90.5945 52.0679 90.606 52.2313 90.5835C52.3967 90.5533 52.548 90.4986 52.6852 90.4194C52.8245 90.3325 52.9447 90.2239 53.0458 90.0936C53.149 89.9557 53.2234 89.8017 53.269 89.6317ZM50.7026 83.8629L50.0535 86.2854L52.4413 86.9252C52.6035 86.9687 52.7586 86.9771 52.9066 86.9505C53.0622 86.9259 53.2037 86.8769 53.3311 86.8034C53.4683 86.7242 53.5836 86.6184 53.677 86.4861C53.7782 86.3558 53.8526 86.2018 53.9002 86.0241C53.9954 85.6686 53.9726 85.3519 53.8318 85.074C53.693 84.7884 53.469 84.6041 53.1599 84.5213L50.7026 83.8629ZM62.9984 85.9525L64.1343 86.2568L65.1747 95.3561L63.807 94.9897L63.5371 92.5196L60.3611 91.6686L58.9039 93.6759L57.5246 93.3063L62.9984 85.9525ZM63.5398 91.4892L63.1657 87.5999L60.8507 90.7687L63.5398 91.4892ZM66.4833 91.2344C66.6159 90.7398 66.8362 90.273 67.1444 89.8338C67.4546 89.3868 67.8315 89.0157 68.275 88.7205C68.7284 88.4195 69.2344 88.2156 69.7932 88.1085C70.3519 88.0015 70.9442 88.0318 71.5701 88.1995C72.3197 88.4004 72.9166 88.7384 73.3607 89.2135C73.8049 89.6887 74.0908 90.2291 74.2183 90.8347L73.0151 91.2453C72.9654 90.967 72.8822 90.7211 72.7655 90.5076C72.6488 90.2941 72.5073 90.1112 72.341 89.959C72.1748 89.8068 71.9925 89.6834 71.7942 89.5889C71.598 89.4866 71.4033 89.4096 71.2101 89.3578C70.7774 89.2419 70.3749 89.2293 70.0027 89.3201C69.6326 89.4031 69.2972 89.5575 68.9965 89.7834C68.7035 90.0114 68.4515 90.2875 68.2403 90.6119C68.0369 90.9384 67.8876 91.2794 67.7923 91.6348C67.6846 92.0366 67.6478 92.4368 67.6819 92.8351C67.7159 93.2335 67.8116 93.6029 67.9689 93.9432C68.1339 94.2856 68.3559 94.5852 68.6349 94.8422C68.916 95.0914 69.2497 95.2678 69.636 95.3713C69.837 95.4252 70.048 95.4569 70.269 95.4664C70.4999 95.4703 70.7264 95.444 70.9486 95.3876C71.1805 95.3255 71.4004 95.2312 71.6083 95.1047C71.8238 94.9802 72.0178 94.8127 72.1902 94.6022L73.1035 95.5054C72.8893 95.7792 72.6304 96.0039 72.3266 96.1792C72.025 96.3469 71.7017 96.4715 71.3569 96.553C71.012 96.6345 70.6582 96.6722 70.2954 96.6661C69.9404 96.6621 69.6005 96.6166 69.276 96.5296C68.6964 96.3743 68.2002 96.1089 67.7874 95.7332C67.3746 95.3576 67.0471 94.9261 66.8049 94.4388C66.5649 93.9438 66.4155 93.4193 66.3569 92.8652C66.3004 92.3035 66.3425 91.7599 66.4833 91.2344ZM74.3051 93.3302C74.4376 92.8357 74.6579 92.3688 74.9661 91.9296C75.2764 91.4827 75.6532 91.1116 76.0968 90.8163C76.5501 90.5154 77.0562 90.3114 77.6149 90.2044C78.1736 90.0973 78.766 90.1277 79.3919 90.2954C80.1414 90.4962 80.7383 90.8342 81.1825 91.3094C81.6266 91.7845 81.9125 92.3249 82.0401 92.9306L80.8368 93.3411C80.7872 93.0628 80.704 92.8169 80.5873 92.6034C80.4705 92.3899 80.329 92.2071 80.1628 92.0548C79.9965 91.9026 79.8142 91.7792 79.6159 91.6847C79.4197 91.5824 79.225 91.5054 79.0318 91.4537C78.5991 91.3377 78.1966 91.3251 77.8245 91.4159C77.4544 91.4989 77.119 91.6534 76.8183 91.8792C76.5253 92.1072 76.2732 92.3833 76.0621 92.7078C75.8586 93.0342 75.7093 93.3752 75.614 93.7307C75.5064 94.1325 75.4696 94.5326 75.5036 94.931C75.5377 95.3294 75.6333 95.6987 75.7906 96.039C75.9556 96.3814 76.1776 96.6811 76.4566 96.938C76.7377 97.1873 77.0714 97.3636 77.4578 97.4672C77.6587 97.521 77.8697 97.5527 78.0907 97.5622C78.3216 97.5661 78.5481 97.5398 78.7703 97.4834C79.0023 97.4213 79.2222 97.327 79.43 97.2005C79.6456 97.0761 79.8395 96.9086 80.0119 96.698L80.9253 97.6012C80.7111 97.8751 80.4521 98.0997 80.1484 98.2751C79.8467 98.4427 79.5234 98.5673 79.1786 98.6488C78.8337 98.7303 78.4799 98.768 78.1171 98.7619C77.7621 98.7579 77.4223 98.7124 77.0977 98.6254C76.5182 98.4702 76.022 98.2047 75.6091 97.829C75.1963 97.4534 74.8688 97.0219 74.6267 96.5346C74.3866 96.0396 74.2373 95.5151 74.1787 94.9611C74.1221 94.3993 74.1643 93.8557 74.3051 93.3302ZM84.9458 100.716C84.3585 100.559 83.8525 100.299 83.4278 99.9364C83.0129 99.5685 82.6833 99.1448 82.4391 98.6652C82.197 98.178 82.0466 97.6573 81.988 97.1033C81.9371 96.5513 81.9821 96.0126 82.1229 95.4871C82.2699 94.9385 82.5111 94.4399 82.8466 93.9915C83.1821 93.543 83.5755 93.1722 84.0268 92.879C84.4858 92.5879 84.9848 92.3945 85.524 92.2987C86.0729 92.1974 86.6333 92.2233 87.2051 92.3765C87.7924 92.5339 88.2925 92.8004 88.7053 93.176C89.128 93.546 89.4565 93.9736 89.6909 94.4588C89.933 94.9461 90.0795 95.4657 90.1304 96.0177C90.1911 96.564 90.152 97.096 90.0133 97.6138C89.8663 98.1624 89.6251 98.661 89.2896 99.1094C88.9618 99.5599 88.5684 99.9308 88.1094 100.222C87.6525 100.505 87.1496 100.698 86.6006 100.799C86.0615 100.895 85.5099 100.867 84.9458 100.716ZM83.4443 95.8412C83.3407 96.2275 83.3021 96.6189 83.3285 97.0152C83.3548 97.4115 83.4427 97.7788 83.5923 98.117C83.7496 98.4573 83.9677 98.756 84.2467 99.0129C84.5278 99.2622 84.8692 99.4406 85.271 99.5483C85.6883 99.6601 86.0781 99.6735 86.4405 99.5883C86.8127 99.4976 87.1491 99.3393 87.4498 99.1134C87.7505 98.8875 88.0065 98.6124 88.2176 98.288C88.4288 97.9636 88.5841 97.6159 88.6834 97.245C88.789 96.8509 88.8276 96.4596 88.7993 96.071C88.7729 95.6747 88.6801 95.3102 88.5207 94.9776C88.3712 94.6394 88.1559 94.3457 87.8748 94.0964C87.6035 93.8415 87.2708 93.6613 86.8767 93.5557C86.4595 93.4439 86.0647 93.4334 85.6926 93.5241C85.3225 93.6072 84.9881 93.7578 84.6895 93.9759C84.3908 94.194 84.131 94.4681 83.9101 94.7982C83.6989 95.1226 83.5436 95.4703 83.4443 95.8412ZM90.2695 102.08L92.4746 93.8506L95.9288 94.7761C96.2997 94.8755 96.619 95.0439 96.8867 95.2812C97.1621 95.5207 97.3777 95.7979 97.5334 96.113C97.6913 96.4203 97.7885 96.7528 97.8252 97.1105C97.8717 97.4625 97.8504 97.8047 97.7614 98.1369C97.6682 98.4847 97.5163 98.8042 97.3057 99.0957C97.1049 99.3814 96.8621 99.6228 96.5774 99.8199C96.2948 100.009 95.9783 100.14 95.6277 100.211C95.287 100.277 94.9312 100.261 94.5603 100.161L92.3348 99.5651L91.5677 102.428L90.2695 102.08ZM92.6423 98.4176L94.7866 98.9922C94.9721 99.0419 95.1486 99.0477 95.3161 99.0098C95.4914 98.9739 95.6517 98.901 95.7972 98.7909C95.9426 98.6807 96.0711 98.5412 96.1826 98.3724C96.2941 98.2035 96.3799 98.007 96.44 97.7829C96.5021 97.5511 96.5232 97.3331 96.5034 97.129C96.4835 96.9249 96.4294 96.7406 96.3409 96.5761C96.2546 96.4039 96.1396 96.2613 95.9959 96.1482C95.8621 96.0296 95.7101 95.9474 95.5401 95.9019L93.4653 95.3459L92.6423 98.4176ZM105.427 98.5512L102.692 97.8182L100.794 104.9L99.4844 104.549L101.382 97.4672L98.635 96.7311L98.9424 95.5836L105.735 97.4036L105.427 98.5512ZM106.504 104.281L112.657 99.2585L113.689 99.5349L111.484 107.765L110.174 107.414L111.811 101.305L105.758 106.23L104.656 105.935L106.862 97.7056L108.171 98.0565L106.504 104.281ZM120.304 110.128L121.891 104.205L118.243 108.035L117.524 107.843L116.269 102.699L114.682 108.622L113.384 108.274L115.589 100.044L116.98 100.417L118.356 106.177L122.428 101.876L123.819 102.249L121.613 110.479L120.304 110.128ZM129.478 111.356L129.171 112.504L123.526 110.991L125.731 102.762L131.272 104.246L130.964 105.394L126.722 104.257L126.094 106.598L129.769 107.583L129.48 108.661L125.806 107.676L125.132 110.192L129.478 111.356ZM139.507 106.453L137.302 114.683L135.992 114.332L136.964 110.704L132.814 109.592L131.842 113.22L130.544 112.872L132.749 104.642L134.047 104.99L133.125 108.433L137.275 109.544L138.197 106.102L139.507 106.453ZM147.128 109.725L144.393 108.992L142.495 116.074L141.185 115.723L143.083 108.641L140.336 107.905L140.643 106.757L147.436 108.577L147.128 109.725ZM152.31 117.474L152.002 118.621L146.357 117.109L148.562 108.879L154.103 110.364L153.796 111.511L149.553 110.375L148.926 112.716L152.6 113.701L152.311 114.779L148.637 113.794L147.963 116.309L152.31 117.474Z" fill="url(#paint0_linear_228_1411)"/>
<path fill-rule="evenodd" clip-rule="evenodd" d="M79.5239 11.0178C79.9416 11.0501 81.6582 11.864 83.3223 12.8028C88.1695 15.517 92.2172 15.9015 94.2469 13.8781C95.7324 12.4118 97.3585 9.99047 97.5662 8.96255C98.0484 6.41622 99.2747 6.93789 101.101 10.5365C104.669 17.5328 110.228 19.87 116.807 17.2115C120.555 15.6954 120.905 15.8006 119.649 18.2942C115.757 26.0578 121.596 35.8428 130.834 37.0435C132.472 37.2648 132.327 37.5804 129.45 40.0156C124.847 43.8949 123.771 51.6061 127.043 56.9236C128.105 58.6291 128.346 59.4866 127.943 59.9238C127.493 60.401 126.39 60.6277 125.783 60.3374C124.273 59.6376 119.089 60.7138 117.703 62.0154C116.014 63.5894 113.743 70.5762 114.289 72.525C114.559 73.4864 113.869 75.5011 113.1 76.0878C111.75 77.1017 111.716 77.0826 108.28 74.5086C100.195 68.4733 95.3969 68.9493 91.713 76.1026C89.649 80.0842 88.2604 80.4396 86.8591 77.317C83.1174 68.9727 75.9175 65.0504 70.3613 68.3383C67.0587 70.2975 66.875 69.9546 67.0874 62.9099C67.1952 60.0695 66.1974 57.3449 64.4507 55.5918C62.2586 53.3957 59.0403 50.7659 57.6396 50.0382C55.7557 49.0443 56.0035 47.9505 58.2362 47.3791C60.5234 46.7937 63.0337 42.5308 63.2369 38.8862C63.405 36.3645 61.0466 31.2867 58.3762 28.3218C57.4001 27.2348 57.4936 26.3197 58.6659 25.7133C59.3228 25.3503 60.494 25.4682 60.6034 25.858C60.8294 26.6635 69.4106 25.108 71.993 23.8065C76.0798 21.7302 79.2856 15.7854 77.841 12.9245C77.3569 11.823 78.113 10.8776 79.5239 11.0178ZM79.8557 17.5054C78.9114 22.5651 72.7165 26.4899 63.9097 27.6576L62.3611 27.859L63.241 28.9149C68.2841 35.0323 67.4576 43.3203 61.3431 47.5308C59.9714 48.4667 59.844 48.2209 62.584 50.0818C70.099 55.2324 71.5762 58.0014 70.143 64.4395C69.8122 65.8609 69.6608 66.9858 69.7697 66.9579C69.8786 66.9301 70.8695 66.5094 71.982 66.0019C75.0147 64.6409 76.738 64.6455 80.2273 65.9526C85.1552 67.8106 87.7435 70.3789 88.9463 74.6663L89.2233 75.6537L90.5668 73.8895C95.4861 67.3947 102.852 66.7073 109.96 72.0733L111.027 72.8587L111.529 70.2794C112.818 63.4325 116.449 59.5234 122.241 58.7375L124.43 58.4279L124.041 57.6641C121 51.5076 122.196 44.0162 126.897 39.8613L128.297 38.6117L125.341 36.9174C117.447 32.3929 114.513 26.822 116.607 20.2427L116.918 19.2718L115.491 19.804C109.587 21.9556 101.526 18.8107 99.3267 13.4693L98.706 11.985L97.6941 13.163C93.6391 17.8491 88.6486 18.6807 82.6881 15.6387C80.4809 14.5326 80.3502 14.4825 80.2509 15.0649C80.2368 15.4306 80.0436 16.5105 79.8557 17.5054ZM93.373 22.2061C119.123 22.2443 124.628 59.9646 99.5468 64.601C77.4921 68.6857 60.859 41.3328 77.6862 28.3929C80.3986 26.3063 81.4676 27.6201 78.9647 30.3494C63.0281 47.7123 91.085 74.5924 107.856 58.0186C120.359 45.684 109.817 26.5198 92.9254 24.7714C90.7336 24.5525 87.442 24.7822 85.1641 25.5045C82.7772 26.2546 81.5938 25.0535 84.5194 23.8313C86.7862 22.8613 90.9454 22.1868 93.373 22.2061Z" fill="url(#paint1_linear_228_1411)"/>
<defs>
<linearGradient id="paint0_linear_228_1411" x1="36.1287" y1="77.7979" x2="31.6395" y2="120.898" gradientUnits="userSpaceOnUse">
<stop stop-color="#AB2AE8"/>
<stop offset="1" stop-color="#FD6B4B"/>
</linearGradient>
<linearGradient id="paint1_linear_228_1411" x1="109.63" y1="10.2865" x2="88.393" y2="78.5826" gradientUnits="userSpaceOnUse">
<stop stop-color="#AB2AE8"/>
<stop offset="1" stop-color="#FD6B4B"/>
</linearGradient>
</defs>
</svg>
