<svg width="21" height="21" viewBox="0 0 21 21" fill="none" xmlns="http://www.w3.org/2000/svg">
<path d="M0 21.0001L1.48317 15.6075C0.567948 14.029 0.0870384 12.2396 0.0879176 10.4047C0.0905551 4.66825 4.78096 0.00012207 10.544 0.00012207C13.3406 0.00099707 15.9658 1.08512 17.9405 3.05212C19.9142 5.01912 21.0009 7.63362 21 10.4144C20.9974 16.1517 16.307 20.8199 10.544 20.8199C8.7944 20.819 7.07033 20.3824 5.5432 19.5529L0 21.0001ZM5.79992 17.669C7.27342 18.5396 8.6801 19.0611 10.5404 19.062C15.3302 19.062 19.232 15.1822 19.2346 10.4126C19.2364 5.63337 15.3531 1.75887 10.5475 1.75712C5.75421 1.75712 1.85506 5.63687 1.8533 10.4056C1.85242 12.3525 2.42565 13.8102 3.38834 15.3354L2.51005 18.5274L5.79992 17.669ZM15.8111 12.888C15.746 12.7795 15.572 12.7147 15.31 12.5844C15.0489 12.454 13.7644 11.8249 13.5244 11.7382C13.2852 11.6516 13.1112 11.6079 12.9362 11.8686C12.7621 12.1285 12.261 12.7147 12.1089 12.888C11.9568 13.0612 11.8038 13.0831 11.5427 12.9527C11.2816 12.8224 10.4393 12.5485 9.44147 11.6621C8.66516 10.9726 8.14029 10.1212 7.98819 9.8605C7.8361 9.60062 7.97237 9.45975 8.10249 9.33025C8.2203 9.21387 8.3636 9.02662 8.4946 8.87437C8.62735 8.72387 8.67043 8.61537 8.75835 8.44125C8.84539 8.268 8.80231 8.11575 8.73637 7.98537C8.67043 7.85587 8.1482 6.57575 7.93105 6.05512C7.71829 5.5485 7.50289 5.61675 7.34288 5.60887L6.84175 5.60012C6.66767 5.60012 6.38458 5.66487 6.14544 5.92562C5.9063 6.18637 5.2311 6.81462 5.2311 8.09475C5.2311 9.37487 6.16742 10.6112 6.29754 10.7845C6.42853 10.9577 8.13941 13.5845 10.7602 14.7106C11.3836 14.9784 11.8706 15.1385 12.2496 15.2584C12.8755 15.4561 13.4452 15.4281 13.8954 15.3616C14.3974 15.2872 15.441 14.7325 15.659 14.1252C15.877 13.5171 15.877 12.9965 15.8111 12.888Z" fill="white"/>
</svg>
